<?xml version="1.0" encoding="UTF-8"?><svg version="1.1" width="28px" height="29px" viewBox="0 0 28.0 29.0" xmlns="http://www.w3.org/2000/svg" xmlns:xlink="http://www.w3.org/1999/xlink"><defs><clipPath id="i0"><path d="M14,0 C21.732,0 28,6.268 28,14 C28,21.732 21.732,28 14,28 C6.268,28 0,21.732 0,14 C0,6.268 6.268,0 14,0 Z"></path></clipPath><clipPath id="i1"><path d="M14.3799851,0.0126172181 C14.4199851,-0.0123827819 14.4699851,-0.00438278192 14.5489851,0.0746172181 C14.6079851,0.133617218 14.6549851,0.157617218 14.7029851,0.152617218 C14.9599851,0.125617218 15.2489851,0.190617218 15.5289851,0.252617218 L15.6509851,0.280617218 C15.7179851,0.294617218 15.7879851,0.294617218 15.8699851,0.280617218 C15.9309851,0.270617218 16.0069851,0.267617218 16.1039851,0.326617218 C16.1749851,0.368617218 16.2479851,0.375617218 16.2959851,0.345617218 C16.3649851,0.301617218 16.4499851,0.328617218 16.5309851,0.363617218 C16.5729851,0.381617218 16.6119851,0.387617218 16.6499851,0.392617218 C16.6649851,0.394617218 16.6799851,0.396617218 16.6949851,0.399617218 L16.7188369,0.403913514 C16.7312073,0.404506107 16.7429851,0.399617218 16.7449851,0.375617218 C16.7539851,0.281617218 16.7989851,0.284617218 16.8729851,0.297617218 C16.9179851,0.305617218 16.9639851,0.313617218 16.9959851,0.285617218 C16.9999851,0.285617218 17.0189851,0.297617218 17.0499851,0.328617218 C17.1379851,0.418617218 17.2069851,0.434617218 17.2479851,0.373617218 C17.2889851,0.313617218 17.3529851,0.325617218 17.4429851,0.364617218 C17.5729851,0.420617218 17.6759851,0.441617218 17.7539851,0.359617218 C17.7539851,0.359617218 17.9299851,0.415617218 18.0929851,0.583617218 C18.2559851,0.751617218 18.1449851,0.941617218 17.8799851,1.05661722 C17.8209851,1.08261722 17.7799851,1.00361722 17.7329851,0.988617218 C17.7149851,0.983617218 17.6969851,0.978617218 17.6799851,0.971617218 C17.6659851,0.966617218 17.6569851,0.969617218 17.6499851,0.972617218 C17.6169851,0.973617218 17.5909851,0.971617218 17.5659851,0.970617218 C17.4359851,0.962617218 17.3009851,0.954617218 17.2109851,1.08161722 C17.1849851,1.11961722 17.1059851,1.09361722 17.0389851,1.05161722 C16.9699851,1.00861722 16.9259851,1.01361722 16.8819851,1.03661722 C16.7869851,1.08461722 16.6759851,1.04361722 16.5519851,0.913617218 C16.5449851,0.905617218 16.5369851,0.897617218 16.5289851,0.888617218 C16.5229851,0.882617218 16.5179851,0.875617218 16.5119851,0.870617218 C16.4259851,0.779617218 16.3539851,0.754617218 16.2989851,0.795617218 C16.2629851,0.823617218 16.2199851,0.818617218 16.1599851,0.780617218 C16.1109851,0.749617218 16.0689851,0.756617218 16.0259851,0.767617218 C15.9159851,0.793617218 15.8219851,0.811617218 15.7049851,0.773617218 C15.5799851,0.732617218 15.4209851,0.689617218 15.2929851,0.717617218 C15.1729851,0.743617218 15.0699851,0.755617218 14.9249851,0.645617218 C14.8729851,0.605617218 14.8159851,0.615617218 14.7549851,0.671617218 C14.7049851,0.719617218 14.6619851,0.712617218 14.5979851,0.645617218 C14.5649851,0.611617218 14.5259851,0.594617218 14.4819851,0.596617218 C14.4489851,0.597617218 14.4169851,0.609617218 14.3799851,0.632617218 C14.3429851,0.609617218 14.3099851,0.597617218 14.2769851,0.596617218 C14.2329851,0.594617218 14.1939851,0.611617218 14.1609851,0.645617218 C14.0969851,0.712617218 14.0549851,0.719617218 14.0039851,0.671617218 C13.9439851,0.615617218 13.8869851,0.605617218 13.8339851,0.645617218 C13.6889851,0.755617218 13.5859851,0.743617218 13.4669851,0.717617218 C13.3379851,0.689617218 13.1789851,0.732617218 13.0549851,0.773617218 C12.9379851,0.811617218 12.8439851,0.793617218 12.7329851,0.767617218 C12.6909851,0.756617218 12.6489851,0.749617218 12.5989851,0.780617218 C12.5399851,0.818617218 12.4969851,0.823617218 12.4599851,0.795617218 L12.4254571,0.778937218 C12.3766251,0.767257218 12.3167851,0.797817218 12.2479851,0.870617218 L12.2299851,0.888617218 C12.2229851,0.897617218 12.2149851,0.905617218 12.2069851,0.913617218 C12.0829851,1.04361722 11.9719851,1.08461722 11.8769851,1.03661722 C11.8329851,1.01361722 11.7899851,1.00861722 11.7209851,1.05161722 C11.6539851,1.09361722 11.5749851,1.11961722 11.5479851,1.08161722 C11.4589851,0.954617218 11.3239851,0.962617218 11.1929851,0.970617218 C11.1679851,0.971617218 11.1429851,0.973617218 11.1179851,0.973617218 L11.0972351,0.969117218 L11.0799851,0.971617218 C11.0619851,0.978617218 11.0449851,0.983617218 11.0269851,0.988617218 C10.9799851,1.00361722 10.9319851,1.01761722 10.8789851,1.05661722 C10.6889851,1.19761722 10.5509851,1.20361722 10.4579851,1.07661722 C10.4479851,1.06361722 10.4399851,1.04661722 10.4319851,1.02961722 C10.4219851,1.00861722 10.4109851,0.986617218 10.3969851,0.968617218 C10.3639851,0.928617218 10.3059851,0.885617218 10.1979851,0.985617218 C10.1659851,1.01561722 10.1239851,1.03361722 10.0929851,1.02861722 C10.0199851,1.01761722 9.93598505,1.00061722 9.86598505,0.958617218 L9.81998505,0.928617218 C9.74198505,0.876617218 9.66198505,0.822617218 9.54098505,0.868617218 C9.52998505,0.872617218 9.51598505,0.863617218 9.50398505,0.856617218 C9.48798505,0.847617218 9.47998505,0.841617218 9.47198505,0.835617218 C9.42998505,0.805617218 9.37798505,0.768617218 9.28698505,0.863617218 C9.28098505,0.870617218 9.27398505,0.877617218 9.26798505,0.884617218 C9.25998505,0.884617218 9.24798505,0.879617218 9.24298505,0.877617218 L9.17698505,0.849617218 C9.11898505,0.825617218 9.05898505,0.801617218 9.00798505,0.761617218 C8.95698505,0.720617218 8.91198505,0.665617218 8.86498505,0.606617218 L8.84398505,0.627617218 C8.85998505,0.633617218 8.86998505,0.641617218 8.87598505,0.648617218 L8.87898505,0.658617218 C8.88598505,0.708617218 8.88298505,0.753617218 8.87798505,0.758617218 C8.84398505,0.775617218 8.79198505,0.790617218 8.73598505,0.763617218 C8.68698505,0.740617218 8.64298505,0.732617218 8.60198505,0.733617218 C8.57098505,0.794617218 8.53798505,0.844617218 8.49298505,0.890617218 C8.47598505,0.909617218 8.45798505,0.926617218 8.44098505,0.941617218 L8.35498505,0.889617218 L8.25498505,0.828617218 L8.24198505,0.820617218 L8.22398505,0.840617218 L8.19998505,0.864617218 L8.17998505,0.886617218 L8.15698505,0.910617218 C8.14198505,0.992617218 8.12398505,1.01761722 8.07598505,0.983617218 C8.02798505,1.01761722 8.00998505,0.992617218 8.00098505,0.915617218 L7.97198505,0.886617218 L7.95198505,0.864617218 L7.92798505,0.840617218 L7.90998505,0.820617218 L7.89798505,0.828617218 L7.79698505,0.889617218 L7.71198505,0.941617218 C7.69498505,0.926617218 7.67698505,0.909617218 7.65898505,0.890617218 C7.61498505,0.844617218 7.58098505,0.794617218 7.54998505,0.733617218 C7.50898505,0.732617218 7.46598505,0.740617218 7.41598505,0.763617218 C7.35998505,0.790617218 7.30798505,0.775617218 7.27398505,0.758617218 C7.26898505,0.753617218 7.26598505,0.708617218 7.27398505,0.658617218 C7.27398505,0.652617218 7.27598505,0.649617218 7.27598505,0.648617218 L7.28861005,0.637742218 L7.30798505,0.627617218 C7.32598505,0.620617218 7.34298505,0.605617218 7.35898505,0.592617218 C7.36498505,0.586617218 7.37198505,0.580617218 7.37798505,0.575617218 C7.38898505,0.568617218 7.39898505,0.561617218 7.40998505,0.554617218 C7.40298505,0.547617218 7.39798505,0.541617218 7.39298505,0.536617218 L7.36898505,0.507617218 L7.35498505,0.523617218 C7.33198505,0.551617218 7.30898505,0.579617218 7.28698505,0.606617218 C7.23998505,0.665617218 7.19498505,0.720617218 7.14398505,0.761617218 C7.09398505,0.801617218 7.03398505,0.825617218 6.97498505,0.849617218 C6.95298505,0.858617218 6.93198505,0.867617218 6.90998505,0.877617218 C6.90398505,0.879617218 6.89198505,0.884617218 6.88498505,0.884617218 C6.87798505,0.877617218 6.87198505,0.870617218 6.86598505,0.863617218 C6.77498505,0.768617218 6.72298505,0.805617218 6.68098505,0.835617218 C6.67198505,0.841617218 6.66398505,0.847617218 6.65598505,0.851617218 C6.63598505,0.863617218 6.62198505,0.872617218 6.61098505,0.868617218 C6.48998505,0.822617218 6.40998505,0.876617218 6.33198505,0.928617218 C6.31698505,0.938617218 6.30198505,0.948617218 6.28598505,0.958617218 C6.21598505,1.00061722 6.13198505,1.01761722 6.05898505,1.02861722 C6.02898505,1.03361722 5.98598505,1.01561722 5.95398505,0.985617218 C5.84598505,0.885617218 5.78898505,0.928617218 5.75498505,0.968617218 C5.74098505,0.986617218 5.73098505,1.00861722 5.72098505,1.02961722 C5.71198505,1.04661722 5.70398505,1.06361722 5.69498505,1.07661722 C5.60098505,1.20361722 5.46298505,1.19761722 5.27298505,1.05661722 C5.22098505,1.01761722 5.17198505,1.00361722 5.12598505,0.988617218 C5.10798505,0.983617218 5.08998505,0.978617218 5.07198505,0.971617218 C5.05898505,0.966617218 5.04998505,0.969617218 5.04198505,0.972617218 C5.00898505,0.973617218 4.98398505,0.971617218 4.95898505,0.970617218 C4.82798505,0.962617218 4.69398505,0.954617218 4.60398505,1.08161722 C4.57698505,1.11961722 4.49798505,1.09361722 4.43198505,1.05161722 C4.36198505,1.00861722 4.31898505,1.01361722 4.27498505,1.03661722 C4.17998505,1.08461722 4.06898505,1.04361722 3.94498505,0.913617218 C3.93698505,0.905617218 3.92998505,0.897617218 3.92198505,0.888617218 C3.91598505,0.882617218 3.90998505,0.875617218 3.90498505,0.870617218 C3.81798505,0.779617218 3.74698505,0.754617218 3.69198505,0.795617218 C3.65598505,0.823617218 3.61298505,0.818617218 3.55298505,0.780617218 C3.50398505,0.749617218 3.46198505,0.756617218 3.41898505,0.767617218 C3.30798505,0.793617218 3.21398505,0.811617218 3.09798505,0.773617218 C2.97298505,0.732617218 2.81398505,0.689617218 2.68498505,0.717617218 C2.56598505,0.743617218 2.46298505,0.755617218 2.31798505,0.645617218 C2.26598505,0.605617218 2.20798505,0.615617218 2.14798505,0.671617218 C2.09698505,0.719617218 2.05498505,0.712617218 1.99098505,0.645617218 C1.95798505,0.611617218 1.91898505,0.594617218 1.87498505,0.596617218 C1.84198505,0.597617218 1.80998505,0.609617218 1.77198505,0.632617218 C1.73498505,0.609617218 1.70298505,0.597617218 1.66998505,0.596617218 C1.62598505,0.594617218 1.58698505,0.611617218 1.55398505,0.645617218 C1.48998505,0.712617218 1.44798505,0.719617218 1.39698505,0.671617218 C1.33698505,0.615617218 1.27998505,0.605617218 1.22698505,0.645617218 C1.08198505,0.755617218 0.978985051,0.743617218 0.859985051,0.717617218 C0.730985051,0.689617218 0.571985051,0.732617218 0.446985051,0.773617218 C0.446985051,0.773617218 0.0889850509,0.842617218 0.0199850509,0.680617218 C-0.0480149491,0.517617218 0.0619850509,0.281617218 0.281985051,0.280617218 C0.364985051,0.280617218 0.433985051,0.294617218 0.501985051,0.279617218 C0.541985051,0.271617218 0.582985051,0.261617218 0.622985051,0.252617218 C0.902985051,0.190617218 1.19198505,0.125617218 1.44998505,0.152617218 C1.49698505,0.157617218 1.54398505,0.133617218 1.60398505,0.0746172181 C1.68198505,-0.00438278192 1.73298505,-0.0123827819 1.77198505,0.0126172181 C1.81198505,-0.0123827819 1.86298505,-0.00438278192 1.94198505,0.0746172181 C2.00098505,0.133617218 2.04798505,0.157617218 2.09598505,0.152617218 C2.35298505,0.125617218 2.64198505,0.190617218 2.92198505,0.252617218 C2.96198505,0.261617218 3.00298505,0.271617218 3.04298505,0.280617218 C3.11098505,0.294617218 3.18098505,0.294617218 3.26298505,0.280617218 C3.32398505,0.270617218 3.39998505,0.267617218 3.49698505,0.326617218 C3.56698505,0.368617218 3.64098505,0.375617218 3.68898505,0.345617218 C3.75798505,0.301617218 3.84298505,0.328617218 3.92298505,0.363617218 C3.96598505,0.381617218 4.00498505,0.387617218 4.04298505,0.392617218 C4.05798505,0.394617218 4.07298505,0.396617218 4.08798505,0.399617218 C4.10998505,0.404617218 4.13398505,0.411617218 4.13798505,0.375617218 C4.14698505,0.281617218 4.19198505,0.284617218 4.26598505,0.297617218 C4.31098505,0.305617218 4.35698505,0.313617218 4.38898505,0.285617218 C4.39298505,0.285617218 4.41198505,0.297617218 4.44198505,0.328617218 C4.53098505,0.418617218 4.59898505,0.434617218 4.64098505,0.373617218 L4.66836905,0.345897218 C4.70862505,0.319497218 4.76398505,0.333417218 4.83598505,0.364617218 C4.96598505,0.420617218 5.06898505,0.441617218 5.14698505,0.359617218 C5.19298505,0.312617218 5.25698505,0.328617218 5.32898505,0.403617218 C5.33898505,0.413617218 5.34898505,0.424617218 5.35898505,0.436617218 C5.37098505,0.451617218 5.38498505,0.467617218 5.40098505,0.483617218 C5.41198505,0.495617218 5.42298505,0.506617218 5.43398505,0.517617218 C5.44298505,0.527617218 5.45198505,0.536617218 5.46098505,0.545617218 L5.48198505,0.567617218 L5.49398505,0.554617218 C5.50698505,0.542617218 5.51898505,0.528617218 5.52998505,0.514617218 C5.55298505,0.486617218 5.57398505,0.461617218 5.59998505,0.456617218 C5.62098505,0.452617218 5.64998505,0.465617218 5.68198505,0.477617218 C5.70598505,0.488617218 5.73098505,0.498617218 5.75498505,0.502617218 C5.80898505,0.511617218 5.84398505,0.502617218 5.86498505,0.474617218 C5.92698505,0.392617218 6.01898505,0.388617218 6.11698505,0.385617218 L6.18098505,0.381617218 C6.20098505,0.379617218 6.22498505,0.387617218 6.24698505,0.402617218 C6.37398505,0.491617218 6.45098505,0.474617218 6.48898505,0.350617218 C6.50298505,0.305617218 6.53598505,0.305617218 6.58298505,0.350617218 C6.75698505,0.518617218 6.86798505,0.470617218 6.96098505,0.394617218 L6.98198505,0.378617218 C7.01198505,0.353617218 7.04198505,0.328617218 7.07498505,0.308617218 C7.11898505,0.281617218 7.16498505,0.293617218 7.21498505,0.346617218 C7.22198505,0.353617218 7.22798505,0.361617218 7.23498505,0.369617218 C7.24698505,0.383617218 7.25698505,0.396617218 7.26798505,0.406617218 C7.36598505,0.509617218 7.42698505,0.480617218 7.46798505,0.442617218 C7.51698505,0.399617218 7.57598505,0.397617218 7.64098505,0.417617218 C7.73398505,0.378617218 7.81798505,0.371617218 7.88198505,0.442617218 C7.89498505,0.456617218 7.91098505,0.462617218 7.92698505,0.467617218 C7.93198505,0.469617218 7.93698505,0.470617218 7.94198505,0.473617218 C7.95898505,0.480617218 7.97598505,0.488617218 7.99298505,0.497617218 C8.01898505,0.511617218 8.04798505,0.518617218 8.07598505,0.528617218 C8.10398505,0.518617218 8.13398505,0.511617218 8.15998505,0.497617218 C8.17698505,0.488617218 8.19298505,0.480617218 8.20998505,0.473617218 C8.21498505,0.470617218 8.21998505,0.469617218 8.22498505,0.467617218 C8.24098505,0.462617218 8.25698505,0.456617218 8.26998505,0.442617218 C8.33398505,0.371617218 8.41898505,0.378617218 8.51198505,0.417617218 C8.57698505,0.397617218 8.63498505,0.399617218 8.68398505,0.442617218 C8.72598505,0.480617218 8.78598505,0.509617218 8.88398505,0.406617218 C8.89498505,0.396617218 8.90598505,0.383617218 8.91698505,0.369617218 C8.92398505,0.361617218 8.93098505,0.353617218 8.93798505,0.346617218 C8.98798505,0.293617218 9.03298505,0.281617218 9.07798505,0.308617218 C9.10998505,0.328617218 9.14098505,0.353617218 9.17098505,0.378617218 L9.19098505,0.394617218 C9.28498505,0.470617218 9.39498505,0.518617218 9.56998505,0.350617218 C9.61598505,0.305617218 9.64898505,0.305617218 9.66298505,0.350617218 C9.70098505,0.474617218 9.77798505,0.491617218 9.90598505,0.402617218 C9.92698505,0.387617218 9.95098505,0.379617218 9.97198505,0.381617218 L10.0359851,0.385617218 C10.1329851,0.388617218 10.2249851,0.392617218 10.2879851,0.474617218 C10.3079851,0.502617218 10.3439851,0.511617218 10.3969851,0.502617218 C10.4209851,0.498617218 10.4469851,0.488617218 10.4709851,0.477617218 C10.5019851,0.465617218 10.5309851,0.452617218 10.5529851,0.456617218 C10.5779851,0.461617218 10.5999851,0.486617218 10.6219851,0.514617218 C10.6339851,0.528617218 10.6449851,0.542617218 10.6579851,0.554617218 L10.6699851,0.567617218 L10.6909851,0.545617218 L10.7354851,0.500992218 L10.7519851,0.483617218 C10.7679851,0.467617218 10.7809851,0.451617218 10.7939851,0.436617218 C10.8039851,0.424617218 10.8129851,0.413617218 10.8229851,0.403617218 C10.8949851,0.328617218 10.9589851,0.312617218 11.0049851,0.359617218 C11.0839851,0.441617218 11.1859851,0.420617218 11.3159851,0.364617218 C11.4059851,0.325617218 11.4699851,0.313617218 11.5109851,0.373617218 C11.5529851,0.434617218 11.6209851,0.418617218 11.7099851,0.328617218 C11.7399851,0.297617218 11.7589851,0.285617218 11.7639851,0.285617218 C11.7949851,0.313617218 11.8419851,0.305617218 11.8869851,0.297617218 C11.9599851,0.284617218 12.0059851,0.281617218 12.0149851,0.375617218 C12.0179851,0.411617218 12.0429851,0.404617218 12.0589851,0.400617218 C12.0799851,0.396617218 12.0949851,0.394617218 12.1099851,0.392617218 C12.1469851,0.387617218 12.1859851,0.381617218 12.2289851,0.363617218 C12.3099851,0.328617218 12.3939851,0.301617218 12.4639851,0.345617218 C12.5119851,0.375617218 12.5849851,0.368617218 12.6549851,0.326617218 C12.7519851,0.267617218 12.8279851,0.270617218 12.8889851,0.280617218 C12.9719851,0.294617218 13.0409851,0.294617218 13.1089851,0.280617218 L13.2309851,0.252617218 C13.5099851,0.190617218 13.7989851,0.125617218 14.0569851,0.152617218 C14.1039851,0.157617218 14.1519851,0.133617218 14.2109851,0.0746172181 C14.2899851,-0.00438278192 14.3399851,-0.0123827819 14.3799851,0.0126172181 Z"></path></clipPath><clipPath id="i2"><path d="M0.583617218,0.0762393765 C0.751617218,-0.0867606235 0.941617218,0.0242393765 1.05661722,0.289239377 C1.08261722,0.348239377 1.00361722,0.389239377 0.988617218,0.436239377 C0.983617218,0.454239377 0.978617218,0.472239377 0.971617218,0.489239377 C0.966617218,0.503239377 0.969617218,0.512239377 0.972617218,0.519239377 C0.973617218,0.552239377 0.971617218,0.578239377 0.970617218,0.603239377 C0.962617218,0.733239377 0.954617218,0.868239377 1.08161722,0.958239377 C1.11961722,0.984239377 1.09361722,1.06323938 1.05161722,1.13023938 C1.00861722,1.19923938 1.01361722,1.24323938 1.03661722,1.28723938 C1.08461722,1.38223938 1.04361722,1.49323938 0.913617218,1.61723938 C0.905617218,1.62423938 0.897617218,1.63223938 0.888617218,1.64023938 C0.882617218,1.64623938 0.875617218,1.65123938 0.870617218,1.65723938 C0.779617218,1.74323938 0.754617218,1.81523938 0.795617218,1.87023938 C0.823617218,1.90623938 0.818617218,1.94923938 0.780617218,2.00923938 C0.749617218,2.05823938 0.756617218,2.10023938 0.767617218,2.14323938 C0.793617218,2.25323938 0.811617218,2.34723938 0.773617218,2.46423938 C0.732617218,2.58923938 0.689617218,2.74823938 0.717617218,2.87623938 C0.743617218,2.99623938 0.755617218,3.09923938 0.645617218,3.24423938 C0.605617218,3.29623938 0.615617218,3.35323938 0.671617218,3.41423938 C0.719617218,3.46423938 0.712617218,3.50723938 0.645617218,3.57123938 C0.611617218,3.60423938 0.594617218,3.64323938 0.596617218,3.68723938 C0.597617218,3.72023938 0.609617218,3.75223938 0.632617218,3.78923938 C0.609617218,3.82623938 0.597617218,3.85923938 0.596617218,3.89223938 C0.594617218,3.93623938 0.611617218,3.97523938 0.645617218,4.00823938 C0.712617218,4.07223938 0.719617218,4.11423938 0.671617218,4.16523938 C0.615617218,4.22523938 0.605617218,4.28223938 0.645617218,4.33523938 C0.755617218,4.48023938 0.743617218,4.58323938 0.717617218,4.70223938 C0.689617218,4.83123938 0.732617218,4.99023938 0.773617218,5.11423938 C0.811617218,5.23123938 0.793617218,5.32523938 0.767617218,5.43623938 C0.756617218,5.47823938 0.749617218,5.52023938 0.780617218,5.57023938 C0.818617218,5.62923938 0.823617218,5.67223938 0.795617218,5.70923938 C0.754617218,5.76323938 0.779617218,5.83523938 0.870617218,5.92123938 L0.888617218,5.93923938 C0.897617218,5.94623938 0.905617218,5.95423938 0.913617218,5.96223938 C1.04361722,6.08623938 1.08461722,6.19723938 1.03661722,6.29223938 C1.01361722,6.33623938 1.00861722,6.37923938 1.05161722,6.44823938 C1.09361722,6.51523938 1.11961722,6.59423938 1.08161722,6.62123938 C0.954617218,6.71023938 0.962617218,6.84523938 0.970617218,6.97623938 C0.971617218,7.00123938 0.973617218,7.02623938 0.973617218,7.05123938 L0.969117218,7.07198938 L0.971617218,7.08923938 C0.978617218,7.10723938 0.983617218,7.12423938 0.988617218,7.14223938 C1.00361722,7.18923938 1.01761722,7.23723938 1.05661722,7.29023938 C1.19761722,7.48023938 1.20361722,7.61823938 1.07661722,7.71123938 C1.06361722,7.72123938 1.04661722,7.72923938 1.02961722,7.73723938 C1.00861722,7.74723938 0.986617218,7.75823938 0.968617218,7.77223938 C0.928617218,7.80523938 0.885617218,7.86323938 0.985617218,7.97123938 C1.01561722,8.00323938 1.03361722,8.04523938 1.02861722,8.07623938 C1.01761722,8.14923938 1.00061722,8.23323938 0.958617218,8.30323938 L0.928617218,8.34923938 C0.876617218,8.42723938 0.822617218,8.50723938 0.868617218,8.62823938 C0.872617218,8.63923938 0.863617218,8.65323938 0.856617218,8.66523938 C0.847617218,8.68123938 0.841617218,8.68923938 0.835617218,8.69723938 C0.805617218,8.73923938 0.768617218,8.79123938 0.863617218,8.88223938 C0.870617218,8.88823938 0.877617218,8.89523938 0.884617218,8.90123938 C0.884617218,8.90923938 0.879617218,8.92123938 0.877617218,8.92623938 L0.849617218,8.99223938 C0.825617218,9.05023938 0.801617218,9.11023938 0.761617218,9.16123938 C0.720617218,9.21223938 0.665617218,9.25723938 0.606617218,9.30423938 L0.627617218,9.32523938 C0.633617218,9.30923938 0.641617218,9.29923938 0.648617218,9.29323938 C0.649617218,9.29223938 0.652617218,9.29123938 0.658617218,9.29023938 C0.708617218,9.28323938 0.753617218,9.28623938 0.758617218,9.29123938 C0.775617218,9.32523938 0.790617218,9.37723938 0.763617218,9.43323938 C0.740617218,9.48223938 0.732617218,9.52623938 0.733617218,9.56723938 C0.794617218,9.59823938 0.844617218,9.63123938 0.890617218,9.67623938 C0.909617218,9.69323938 0.926617218,9.71123938 0.941617218,9.72823938 L0.889617218,9.81423938 L0.828617218,9.91423938 L0.820617218,9.92723938 L0.840617218,9.94523938 L0.864617218,9.96923938 L0.886617218,9.98923938 L0.910617218,10.0122394 C0.992617218,10.0272394 1.01761722,10.0452394 0.983617218,10.0932394 C1.01761722,10.1412394 0.992617218,10.1592394 0.915617218,10.1682394 L0.886617218,10.1972394 L0.864617218,10.2172394 L0.840617218,10.2412394 L0.820617218,10.2592394 L0.828617218,10.2712394 L0.889617218,10.3722394 L0.941617218,10.4572394 C0.926617218,10.4742394 0.909617218,10.4922394 0.890617218,10.5102394 C0.844617218,10.5542394 0.794617218,10.5882394 0.733617218,10.6192394 C0.732617218,10.6602394 0.740617218,10.7032394 0.763617218,10.7532394 C0.790617218,10.8092394 0.775617218,10.8612394 0.758617218,10.8952394 C0.753617218,10.9002394 0.708617218,10.9032394 0.658617218,10.8952394 C0.652617218,10.8952394 0.649617218,10.8932394 0.648617218,10.8932394 L0.637742218,10.8806144 L0.627617218,10.8612394 C0.620617218,10.8432394 0.605617218,10.8262394 0.592617218,10.8102394 C0.586617218,10.8042394 0.580617218,10.7972394 0.575617218,10.7912394 C0.568617218,10.7802394 0.561617218,10.7702394 0.554617218,10.7592394 C0.547617218,10.7662394 0.541617218,10.7712394 0.536617218,10.7762394 L0.507617218,10.8002394 L0.523617218,10.8142394 C0.551617218,10.8372394 0.579617218,10.8602394 0.606617218,10.8822394 C0.665617218,10.9292394 0.720617218,10.9742394 0.761617218,11.0252394 C0.801617218,11.0752394 0.825617218,11.1352394 0.849617218,11.1942394 C0.858617218,11.2162394 0.867617218,11.2372394 0.877617218,11.2592394 C0.879617218,11.2652394 0.884617218,11.2772394 0.884617218,11.2842394 C0.877617218,11.2912394 0.870617218,11.2972394 0.863617218,11.3032394 C0.768617218,11.3942394 0.805617218,11.4462394 0.835617218,11.4882394 C0.841617218,11.4972394 0.847617218,11.5052394 0.851617218,11.5132394 C0.863617218,11.5332394 0.872617218,11.5472394 0.868617218,11.5582394 C0.822617218,11.6792394 0.876617218,11.7592394 0.928617218,11.8372394 C0.938617218,11.8522394 0.948617218,11.8672394 0.958617218,11.8832394 C1.00061722,11.9532394 1.01761722,12.0372394 1.02861722,12.1102394 C1.03361722,12.1402394 1.01661722,12.1832394 0.985617218,12.2152394 C0.885617218,12.3232394 0.928617218,12.3802394 0.968617218,12.4142394 C0.986617218,12.4282394 1.00861722,12.4382394 1.02961722,12.4482394 C1.04661722,12.4572394 1.06361722,12.4652394 1.07661722,12.4742394 C1.20361722,12.5682394 1.19761722,12.7062394 1.05661722,12.8962394 C1.01761722,12.9482394 1.00361722,12.9972394 0.988617218,13.0432394 C0.983617218,13.0612394 0.978617218,13.0792394 0.971617218,13.0972394 C0.966617218,13.1102394 0.969617218,13.1192394 0.972617218,13.1272394 C0.973617218,13.1602394 0.971617218,13.1852394 0.970617218,13.2102394 C0.962617218,13.3412394 0.954617218,13.4752394 1.08161722,13.5652394 C1.11961722,13.5922394 1.09361722,13.6712394 1.05161722,13.7372394 C1.00861722,13.8072394 1.01361722,13.8502394 1.03661722,13.8942394 C1.08461722,13.9892394 1.04361722,14.1002394 0.913617218,14.2242394 C0.905617218,14.2322394 0.897617218,14.2392394 0.888617218,14.2472394 C0.882617218,14.2532394 0.875617218,14.2592394 0.870617218,14.2642394 C0.779617218,14.3512394 0.754617218,14.4222394 0.795617218,14.4772394 C0.823617218,14.5132394 0.818617218,14.5562394 0.780617218,14.6162394 C0.749617218,14.6652394 0.756617218,14.7072394 0.767617218,14.7502394 C0.793617218,14.8612394 0.811617218,14.9552394 0.773617218,15.0712394 C0.732617218,15.1962394 0.689617218,15.3552394 0.717617218,15.4842394 C0.743617218,15.6032394 0.755617218,15.7062394 0.645617218,15.8512394 C0.605617218,15.9032394 0.615617218,15.9612394 0.671617218,16.0212394 L0.693777218,16.0510074 C0.714417218,16.0899194 0.699217218,16.1270394 0.645617218,16.1782394 C0.611617218,16.2112394 0.594617218,16.2502394 0.596617218,16.2942394 C0.597617218,16.3272394 0.609617218,16.3592394 0.632617218,16.3972394 C0.609617218,16.4342394 0.597617218,16.4662394 0.596617218,16.4992394 C0.594617218,16.5432394 0.611617218,16.5822394 0.645617218,16.6152394 C0.712617218,16.6792394 0.719617218,16.7212394 0.671617218,16.7722394 C0.615617218,16.8322394 0.605617218,16.8892394 0.645617218,16.9422394 C0.755617218,17.0872394 0.743617218,17.1902394 0.717617218,17.3092394 C0.689617218,17.4382394 0.732617218,17.5972394 0.773617218,17.7222394 C0.773617218,17.7222394 0.842617218,18.0802394 0.680617218,18.1492394 C0.517617218,18.2172394 0.281617218,18.1072394 0.280617218,17.8872394 C0.280617218,17.8042394 0.294617218,17.7352394 0.279617218,17.6672394 C0.271617218,17.6272394 0.261617218,17.5862394 0.252617218,17.5462394 C0.190617218,17.2662394 0.125617218,16.9772394 0.152617218,16.7192394 C0.157617218,16.6722394 0.133617218,16.6252394 0.0746172181,16.5652394 C-0.00438278192,16.4872394 -0.0123827819,16.4362394 0.0126172181,16.3972394 C-0.0123827819,16.3572394 -0.00438278192,16.3062394 0.0746172181,16.2272394 C0.133617218,16.1682394 0.157617218,16.1212394 0.152617218,16.0732394 C0.125617218,15.8162394 0.190617218,15.5272394 0.252617218,15.2472394 C0.261617218,15.2072394 0.271617218,15.1662394 0.280617218,15.1262394 C0.294617218,15.0582394 0.294617218,14.9882394 0.280617218,14.9062394 C0.270617218,14.8452394 0.267617218,14.7692394 0.326617218,14.6722394 C0.368617218,14.6022394 0.375617218,14.5282394 0.345617218,14.4802394 C0.301617218,14.4112394 0.328617218,14.3262394 0.363617218,14.2462394 C0.381617218,14.2032394 0.387617218,14.1642394 0.392617218,14.1262394 C0.394617218,14.1112394 0.396617218,14.0962394 0.399617218,14.0812394 C0.404617218,14.0592394 0.411617218,14.0352394 0.375617218,14.0312394 C0.281617218,14.0222394 0.284617218,13.9772394 0.297617218,13.9032394 C0.305617218,13.8582394 0.313617218,13.8122394 0.285617218,13.7802394 C0.285617218,13.7762394 0.297617218,13.7572394 0.328617218,13.7272394 C0.418617218,13.6382394 0.434617218,13.5702394 0.373617218,13.5282394 L0.345897218,13.5008554 C0.319497218,13.4605994 0.333417218,13.4052394 0.364617218,13.3332394 C0.420617218,13.2032394 0.441617218,13.1002394 0.359617218,13.0222394 C0.312617218,12.9762394 0.328617218,12.9122394 0.403617218,12.8402394 C0.413617218,12.8302394 0.424617218,12.8202394 0.436617218,12.8102394 C0.451617218,12.7982394 0.467617218,12.7842394 0.484617218,12.7682394 L0.531992218,12.7217394 L0.545617218,12.7082394 L0.567617218,12.6872394 L0.554617218,12.6752394 C0.542617218,12.6622394 0.528617218,12.6502394 0.514617218,12.6392394 C0.486617218,12.6162394 0.461617218,12.5952394 0.456617218,12.5692394 C0.452617218,12.5482394 0.465617218,12.5192394 0.477617218,12.4872394 C0.488617218,12.4632394 0.498617218,12.4382394 0.502617218,12.4142394 C0.511617218,12.3602394 0.502617218,12.3252394 0.474617218,12.3042394 C0.392617218,12.2422394 0.388617218,12.1502394 0.385617218,12.0522394 L0.381617218,11.9882394 C0.379617218,11.9682394 0.387617218,11.9442394 0.402617218,11.9222394 C0.491617218,11.7952394 0.474617218,11.7182394 0.350617218,11.6802394 C0.305617218,11.6662394 0.305617218,11.6332394 0.350617218,11.5862394 C0.518617218,11.4122394 0.470617218,11.3012394 0.394617218,11.2082394 L0.378617218,11.1872394 C0.353617218,11.1572394 0.328617218,11.1272394 0.308617218,11.0942394 C0.281617218,11.0502394 0.293617218,11.0042394 0.346617218,10.9542394 C0.353617218,10.9472394 0.361617218,10.9412394 0.369617218,10.9342394 C0.383617218,10.9222394 0.396617218,10.9122394 0.406617218,10.9012394 C0.509617218,10.8032394 0.480617218,10.7422394 0.442617218,10.7012394 C0.399617218,10.6522394 0.397617218,10.5932394 0.417617218,10.5282394 C0.378617218,10.4352394 0.371617218,10.3512394 0.442617218,10.2872394 C0.456617218,10.2742394 0.462617218,10.2582394 0.467617218,10.2422394 C0.469617218,10.2372394 0.470617218,10.2322394 0.473617218,10.2272394 C0.480617218,10.2102394 0.488617218,10.1932394 0.497617218,10.1762394 C0.511617218,10.1502394 0.518617218,10.1212394 0.528617218,10.0932394 C0.518617218,10.0652394 0.511617218,10.0352394 0.497617218,10.0092394 C0.488617218,9.99223938 0.480617218,9.97623938 0.473617218,9.95923938 C0.470617218,9.95423938 0.469617218,9.94923938 0.467617218,9.94423938 C0.462617218,9.92823938 0.456617218,9.91223938 0.442617218,9.89923938 C0.371617218,9.83523938 0.378617218,9.75023938 0.417617218,9.65723938 C0.397617218,9.59223938 0.399617218,9.53423938 0.442617218,9.48523938 C0.480617218,9.44323938 0.509617218,9.38323938 0.406617218,9.28523938 C0.396617218,9.27423938 0.383617218,9.26323938 0.369617218,9.25223938 C0.361617218,9.24523938 0.353617218,9.23823938 0.346617218,9.23123938 C0.293617218,9.18123938 0.281617218,9.13623938 0.308617218,9.09123938 C0.328617218,9.05923938 0.353617218,9.02823938 0.378617218,8.99823938 L0.394617218,8.97823938 C0.470617218,8.88423938 0.518617218,8.77423938 0.350617218,8.59923938 C0.305617218,8.55323938 0.305617218,8.52023938 0.350617218,8.50623938 C0.474617218,8.46823938 0.491617218,8.39123938 0.402617218,8.26323938 C0.387617218,8.24223938 0.379617218,8.21823938 0.381617218,8.19723938 L0.385617218,8.13323938 C0.388617218,8.03623938 0.392617218,7.94423938 0.474617218,7.88123938 C0.502617218,7.86123938 0.511617218,7.82523938 0.502617218,7.77223938 C0.498617218,7.74823938 0.488617218,7.72223938 0.477617218,7.69823938 C0.465617218,7.66723938 0.452617218,7.63823938 0.456617218,7.61623938 C0.461617218,7.59123938 0.486617218,7.56923938 0.514617218,7.54723938 C0.528617218,7.53523938 0.542617218,7.52423938 0.554617218,7.51123938 L0.567617218,7.49923938 L0.545617218,7.47823938 L0.500992218,7.43373938 L0.483617218,7.41723938 C0.467617218,7.40123938 0.451617218,7.38823938 0.436617218,7.37523938 C0.424617218,7.36523938 0.413617218,7.35623938 0.403617218,7.34623938 C0.328617218,7.27423938 0.312617218,7.21023938 0.359617218,7.16423938 C0.441617218,7.08523938 0.420617218,6.98323938 0.364617218,6.85323938 C0.325617218,6.76323938 0.313617218,6.69923938 0.373617218,6.65823938 C0.434617218,6.61623938 0.418617218,6.54823938 0.328617218,6.45923938 C0.297617218,6.42923938 0.285617218,6.41023938 0.285617218,6.40523938 C0.313617218,6.37423938 0.305617218,6.32723938 0.297617218,6.28223938 C0.284617218,6.20923938 0.281617218,6.16323938 0.375617218,6.15423938 C0.411617218,6.15123938 0.404617218,6.12623938 0.400617218,6.11023938 C0.396617218,6.08923938 0.394617218,6.07423938 0.392617218,6.05923938 C0.387617218,6.02223938 0.381617218,5.98323938 0.363617218,5.94023938 C0.328617218,5.85923938 0.301617218,5.77523938 0.345617218,5.70523938 C0.375617218,5.65723938 0.368617218,5.58423938 0.326617218,5.51423938 C0.267617218,5.41723938 0.270617218,5.34123938 0.280617218,5.28023938 C0.294617218,5.19723938 0.294617218,5.12823938 0.280617218,5.06023938 L0.252617218,4.93823938 C0.190617218,4.65923938 0.125617218,4.37023938 0.152617218,4.11223938 C0.157617218,4.06523938 0.133617218,4.01723938 0.0746172181,3.95823938 C-0.00438278192,3.87923938 -0.0123827819,3.82923938 0.0126172181,3.78923938 C-0.0123827819,3.74923938 -0.00438278192,3.69923938 0.0746172181,3.62023938 C0.133617218,3.56123938 0.157617218,3.51423938 0.152617218,3.46623938 C0.125617218,3.20923938 0.190617218,2.92023938 0.252617218,2.64023938 L0.280617218,2.51823938 C0.294617218,2.45123938 0.294617218,2.38123938 0.280617218,2.29923938 C0.270617218,2.23823938 0.267617218,2.16223938 0.326617218,2.06523938 C0.368617218,1.99423938 0.375617218,1.92123938 0.345617218,1.87323938 C0.301617218,1.80423938 0.328617218,1.71923938 0.363617218,1.63823938 C0.381617218,1.59623938 0.387617218,1.55723938 0.392617218,1.51923938 C0.394617218,1.50423938 0.396617218,1.48923938 0.399617218,1.47423938 L0.403913514,1.45038752 C0.404506107,1.43801715 0.399617218,1.42623938 0.375617218,1.42423938 C0.281617218,1.41523938 0.284617218,1.37023938 0.297617218,1.29623938 C0.305617218,1.25123938 0.313617218,1.20523938 0.285617218,1.17323938 C0.285617218,1.16923938 0.297617218,1.15023938 0.328617218,1.11923938 C0.418617218,1.03123938 0.434617218,0.962239377 0.373617218,0.921239377 L0.345897218,0.893855377 C0.319497218,0.853599377 0.333417218,0.798239377 0.364617218,0.726239377 C0.420617218,0.596239377 0.441617218,0.493239377 0.359617218,0.415239377 C0.359617218,0.415239377 0.415617218,0.239239377 0.583617218,0.0762393765 Z"></path></clipPath></defs><g transform="translate(0.0 -23.0)"><g transform="translate(0.0 23.14665000000002)"><g clip-path="url(#i0)"><polygon points="0,0 28,0 28,28 0,28 0,0" stroke="none" fill="#6B7E7C"></polygon></g><g transform="translate(4.915114949116514 13.319582781916665)"><g clip-path="url(#i1)"><polygon points="-1.37758764e-16,2.98546439e-15 18.1692244,2.98546439e-15 18.1692244,1.16735372 -1.37758764e-16,1.16735372 -1.37758764e-16,2.98546439e-15" stroke="none" fill="#FFFFFF"></polygon></g></g><g transform="translate(13.416382781916695 4.818860623497869)"><g clip-path="url(#i2)"><polygon points="-5.61847329e-16,-1.14833657e-15 1.16735372,-1.14833657e-15 1.16735372,18.1692244 -5.61847329e-16,18.1692244 -5.61847329e-16,-1.14833657e-15" stroke="none" fill="#FFFFFF"></polygon></g></g></g></g></svg>