<?xml version="1.0" encoding="UTF-8"?><svg version="1.1" width="28px" height="28px" viewBox="0 0 28.0 28.0" xmlns="http://www.w3.org/2000/svg" xmlns:xlink="http://www.w3.org/1999/xlink"><defs><clipPath id="i0"><path d="M23.89925,4.10025 C29.36625,9.56725 29.36625,18.43225 23.89925,23.89925 C18.43225,29.36625 9.56725,29.36625 4.10025,23.89925 C-1.36675,18.43225 -1.36675,9.56725 4.10025,4.10025 C9.56725,-1.36675 18.43225,-1.36675 23.89925,4.10025 Z"></path></clipPath><clipPath id="i1"><path d="M0.00940489477,0.177471828 C0.0764048948,0.0144718282 0.321404895,-0.0745281718 0.477404895,0.0804718282 C0.536404895,0.138471828 0.575404895,0.197471828 0.633404895,0.234471828 C0.668404895,0.257471828 0.703404895,0.279471828 0.738404895,0.301471828 C0.980404895,0.455471828 1.23040489,0.614471828 1.39340489,0.815471828 C1.42340489,0.852471828 1.47440489,0.868471828 1.55740489,0.868471828 C1.66940489,0.868471828 1.71040489,0.898471828 1.72040489,0.944471828 C1.76640489,0.954471828 1.79640489,0.995471828 1.79640489,1.10747183 C1.79640489,1.19147183 1.81340489,1.24147183 1.85040489,1.27247183 C2.05140489,1.43547183 2.21040489,1.68547183 2.36340489,1.92647183 C2.38540489,1.96247183 2.40840489,1.99747183 2.43040489,2.03247183 C2.46840489,2.09047183 2.51740489,2.13947183 2.58540489,2.18747183 C2.63640489,2.22347183 2.69140489,2.27547183 2.71840489,2.38547183 C2.73840489,2.46447183 2.78540489,2.52147183 2.84040489,2.53447183 C2.92040489,2.55247183 2.96140489,2.63147183 2.99340489,2.71347183 C3.01040489,2.75647183 3.03440489,2.78747183 3.05740489,2.81847183 C3.06640489,2.83047183 3.07540489,2.84247183 3.08440489,2.85547183 C3.09640489,2.87447183 3.10940489,2.89647183 3.13640489,2.87347183 C3.20940489,2.81347183 3.23940489,2.84747183 3.28240489,2.90847183 C3.30840489,2.94647183 3.33540489,2.98447183 3.37740489,2.98747183 C3.38040489,2.99047183 3.38540489,3.01247183 3.38540489,3.05547183 C3.38440489,3.18247183 3.42140489,3.24147183 3.49340489,3.22847183 C3.56540489,3.21447183 3.60240489,3.26847183 3.63840489,3.35947183 C3.69040489,3.49147183 3.74840489,3.57847183 3.86140489,3.57647183 C3.92740489,3.57447183 3.96140489,3.63147183 3.95940489,3.73547183 C3.95940489,3.74947183 3.95840489,3.76447183 3.95640489,3.77947183 C3.95440489,3.79947183 3.95340489,3.82047183 3.95240489,3.84347183 L3.95240489,3.92947183 L3.95140489,3.95947183 L3.96940489,3.95947183 C3.98740489,3.95947183 4.00540489,3.95847183 4.02340489,3.95647183 C4.05840489,3.95247183 4.09140489,3.94947183 4.11340489,3.96447183 C4.13140489,3.97747183 4.14340489,4.00647183 4.15540489,4.03747183 C4.16540489,4.06147183 4.17640489,4.08747183 4.19040489,4.10647183 C4.22240489,4.15147183 4.25340489,4.16947183 4.28840489,4.16447183 C4.39040489,4.15047183 4.45740489,4.21347183 4.52940489,4.27947183 C4.54540489,4.29447183 4.56040489,4.30847183 4.57740489,4.32247183 C4.59240489,4.33547183 4.60440489,4.35747183 4.60840489,4.38347183 C4.63640489,4.53747183 4.70240489,4.57947183 4.81740489,4.51847183 C4.85840489,4.49647183 4.88240489,4.51947183 4.88340489,4.58447183 C4.88840489,4.82647183 4.99940489,4.87147183 5.11940489,4.88347183 L5.14540489,4.88647183 C5.18440489,4.88947183 5.22440489,4.89347183 5.26140489,4.90247183 C5.31140489,4.91547183 5.33540489,4.95647183 5.33340489,5.02847183 C5.33340489,5.03847183 5.33240489,5.04847183 5.33140489,5.06047183 C5.32940489,5.07747183 5.32840489,5.09447183 5.32740489,5.10947183 C5.32440489,5.25147183 5.38840489,5.27347183 5.44440489,5.27647183 C5.50940489,5.27947183 5.55240489,5.31947183 5.58340489,5.38047183 C5.67740489,5.41847183 5.74140489,5.47347183 5.73740489,5.56847183 C5.73640489,5.58747183 5.74340489,5.60347183 5.75140489,5.61747183 C5.75340489,5.62247183 5.75540489,5.62747183 5.75740489,5.63247183 C5.76440489,5.64947183 5.77040489,5.66747183 5.77640489,5.68547183 C5.78540489,5.71347183 5.80040489,5.73947183 5.81340489,5.76647183 C5.84040489,5.77947183 5.86640489,5.79547183 5.89440489,5.80347183 C5.91240489,5.80947183 5.93040489,5.81547183 5.94740489,5.82247183 C5.95240489,5.82447183 5.95740489,5.82647183 5.96240489,5.82847183 C5.97640489,5.83647183 5.99240489,5.84347183 6.01140489,5.84247183 C6.10640489,5.83847183 6.16140489,5.90247183 6.19940489,5.99647183 C6.26040489,6.02747183 6.30040489,6.07047183 6.30340489,6.13647183 C6.30640489,6.19147183 6.32840489,6.25547183 6.47040489,6.25247183 C6.48540489,6.25147183 6.50240489,6.25047183 6.52040489,6.24947183 C6.53140489,6.24747183 6.54140489,6.24747183 6.55140489,6.24647183 C6.62340489,6.24547183 6.66440489,6.26847183 6.67740489,6.31947183 C6.68540489,6.35547183 6.69040489,6.39547183 6.69340489,6.43447183 L6.69640489,6.46047183 C6.70840489,6.58047183 6.75340489,6.69247183 6.99540489,6.69647183 C7.06040489,6.69747183 7.08340489,6.72147183 7.06140489,6.76247183 C7.00040489,6.87747183 7.04340489,6.94447183 7.19640489,6.97147183 C7.22240489,6.97547183 7.24440489,6.98747183 7.25740489,7.00347183 C7.27140489,7.01947183 7.28540489,7.03547183 7.30040489,7.05047183 C7.36640489,7.12247183 7.42940489,7.18947183 7.41540489,7.29247183 C7.41040489,7.32647183 7.42840489,7.35747183 7.47340489,7.38947183 C7.49240489,7.40347183 7.51840489,7.41447183 7.54240489,7.42447183 C7.57340489,7.43747183 7.60240489,7.44847183 7.61540489,7.46647183 C7.63040489,7.48847183 7.62740489,7.52147183 7.62340489,7.55647183 C7.62240489,7.57447183 7.62040489,7.59247183 7.62040489,7.61047183 L7.62040489,7.62847183 L7.65040489,7.62747183 L7.73640489,7.62747183 C7.75940489,7.62647183 7.78040489,7.62547183 7.80040489,7.62347183 C7.81540489,7.62147183 7.83040489,7.62047183 7.84440489,7.62047183 C7.94840489,7.61747183 8.00440489,7.65247183 8.00340489,7.71847183 C8.00140489,7.83147183 8.08840489,7.88947183 8.22040489,7.94147183 C8.31140489,7.97747183 8.36540489,8.01447183 8.35140489,8.08647183 L8.35182889,8.12544783 C8.36408489,8.17175183 8.42280489,8.19527183 8.52440489,8.19447183 C8.56740489,8.19447183 8.58940489,8.19947183 8.59240489,8.20247183 C8.59440489,8.24447183 8.63340489,8.27147183 8.67140489,8.29747183 C8.73240489,8.34047183 8.76740489,8.37047183 8.70640489,8.44347183 C8.68340489,8.47047183 8.70540489,8.48347183 8.71940489,8.49247183 C8.73740489,8.50447183 8.74940489,8.51347183 8.76140489,8.52247183 C8.79240489,8.54547183 8.82340489,8.56947183 8.86640489,8.58647183 C8.94840489,8.61847183 9.02740489,8.65947183 9.04540489,8.73947183 C9.05840489,8.79447183 9.11540489,8.84147183 9.19440489,8.86147183 C9.30440489,8.88847183 9.35640489,8.94447183 9.39240489,8.99447183 C9.44040489,9.06347183 9.48940489,9.11247183 9.54740489,9.14947183 C9.58240489,9.17247183 9.61840489,9.19447183 9.65340489,9.21647183 C9.89540489,9.37047183 10.1454049,9.52847183 10.3074049,9.72947183 C10.3384049,9.76647183 10.3884049,9.78347183 10.4724049,9.78347183 C10.5844049,9.78347183 10.6254049,9.81347183 10.6354049,9.85947183 C10.6814049,9.86947183 10.7114049,9.91047183 10.7114049,10.0224718 C10.7114049,10.1054718 10.7274049,10.1564718 10.7644049,10.1864718 C10.9654049,10.3494718 11.1244049,10.5994718 11.2784049,10.8414718 C11.3004049,10.8764718 11.3224049,10.9114718 11.3454049,10.9464718 C11.3824049,11.0044718 11.4314049,11.0544718 11.4994049,11.1024718 C11.5504049,11.1384718 11.6064049,11.1894718 11.6334049,11.3004718 C11.6534049,11.3794718 11.6994049,11.4364718 11.7554049,11.4494718 C11.8354049,11.4674718 11.8764049,11.5464718 11.9084049,11.6284718 C11.9254049,11.6714718 11.9494049,11.7024718 11.9724049,11.7324718 C11.9814049,11.7454718 11.9904049,11.7564718 11.9984049,11.7694718 C12.0104049,11.7894718 12.0234049,11.8104718 12.0514049,11.7884718 C12.1244049,11.7274718 12.1544049,11.7624718 12.1974049,11.8234718 C12.2234049,11.8614718 12.2504049,11.8994718 12.2924049,11.9024718 C12.2954049,11.9054718 12.3004049,11.9274718 12.3004049,11.9704718 C12.2984049,12.0974718 12.3364049,12.1564718 12.4084049,12.1424718 L12.4471969,12.1424718 C12.4942049,12.1525518 12.5238049,12.2016718 12.5534049,12.2744718 C12.6054049,12.4054718 12.6634049,12.4934718 12.7764049,12.4914718 C12.7764049,12.4914718 12.8614049,12.6534718 12.8574049,12.8884718 C12.8534049,13.1234718 12.6414049,13.1784718 12.3724049,13.0724718 C12.3124049,13.0484718 12.3394049,12.9634718 12.3164049,12.9204718 L12.2904049,12.8704718 C12.2844049,12.8574718 12.2754049,12.8534718 12.2694049,12.8494718 C12.2454049,12.8274718 12.2284049,12.8084718 12.2114049,12.7894718 C12.1244049,12.6914718 12.0354049,12.5904718 11.8814049,12.6174718 C11.8364049,12.6244718 11.7984049,12.5514718 11.7814049,12.4744718 C11.7624049,12.3944718 11.7284049,12.3674718 11.6814049,12.3524718 C11.5794049,12.3194718 11.5304049,12.2114718 11.5344049,12.0324718 C11.5344049,12.0214718 11.5354049,12.0104718 11.5354049,11.9984718 C11.5364049,11.9894718 11.5364049,11.9814718 11.5364049,11.9734718 C11.5394049,11.8484718 11.5064049,11.7794718 11.4394049,11.7704718 C11.3934049,11.7634718 11.3664049,11.7304718 11.3514049,11.6614718 C11.3384049,11.6044718 11.3034049,11.5794718 11.2664049,11.5564718 C11.1694049,11.4974718 11.0904049,11.4434718 11.0344049,11.3334718 C10.9754049,11.2174718 10.8934049,11.0744718 10.7824049,11.0034718 C10.6794049,10.9374718 10.5984049,10.8724718 10.5734049,10.6924718 C10.5644049,10.6274718 10.5174049,10.5934718 10.4344049,10.5904718 C10.3654049,10.5894718 10.3404049,10.5544718 10.3424049,10.4604718 C10.3434049,10.4134718 10.3274049,10.3744718 10.2954049,10.3444718 C10.2714049,10.3224718 10.2394049,10.3074718 10.1974049,10.2974718 C10.1874049,10.2554718 10.1724049,10.2234718 10.1504049,10.1994718 C10.1204049,10.1674718 10.0814049,10.1514718 10.0334049,10.1524718 C9.94040489,10.1544718 9.90540489,10.1294718 9.90340489,10.0604718 C9.90140489,9.97647183 9.86740489,9.93047183 9.80240489,9.92147183 C9.62240489,9.89547183 9.55740489,9.81547183 9.49140489,9.71247183 C9.42040489,9.60147183 9.27740489,9.51947183 9.16040489,9.46047183 C9.05140489,9.40447183 8.99740489,9.32547183 8.93740489,9.22847183 C8.91540489,9.19047183 8.89040489,9.15647183 8.83340489,9.14347183 C8.76440489,9.12847183 8.73040489,9.10147183 8.72440489,9.05547183 C8.71540489,8.98747183 8.64640489,8.95547183 8.52140489,8.95747183 C8.51340489,8.95747183 8.50440489,8.95847183 8.49640489,8.95847183 C8.48440489,8.95947183 8.47240489,8.96047183 8.46240489,8.96047183 C8.28240489,8.96447183 8.17440489,8.91547183 8.14140489,8.81347183 C8.12640489,8.76647183 8.10040489,8.73247183 8.02040489,8.71347183 C7.94340489,8.69647183 7.86940489,8.65847183 7.87740489,8.61347183 C7.90340489,8.45947183 7.80240489,8.36947183 7.70440489,8.28347183 C7.68640489,8.26647183 7.66740489,8.24947183 7.64940489,8.23247183 C7.64140489,8.21847183 7.63640489,8.20947183 7.62440489,8.20347183 C7.60640489,8.19547183 7.59040489,8.18747183 7.57440489,8.17847183 C7.53140489,8.15547183 7.48640489,8.13147183 7.42240489,8.12247183 C7.18840489,8.08747183 7.08640489,7.99447183 7.11040489,7.83747183 C7.11240489,7.82247183 7.11840489,7.80447183 7.12540489,7.78647183 C7.13240489,7.76447183 7.14040489,7.74147183 7.14340489,7.71947183 C7.14840489,7.66647183 7.13740489,7.59647183 6.99040489,7.59047183 C6.94640489,7.58847183 6.90440489,7.57147183 6.88540489,7.54647183 C6.84240489,7.48747183 6.79440489,7.41547183 6.77440489,7.33547183 C6.77040489,7.31847183 6.76740489,7.30047183 6.76340489,7.28247183 C6.74540489,7.19047183 6.72640489,7.09647183 6.60940489,7.04247183 C6.59840489,7.03747183 6.59440489,7.02147183 6.59140489,7.00747183 C6.58640489,6.99047183 6.58440489,6.98047183 6.58340489,6.97047183 C6.57440489,6.91947183 6.56440489,6.85647183 6.43240489,6.85947183 C6.42340489,6.86047183 6.41340489,6.86047183 6.40340489,6.86147183 C6.39840489,6.85647183 6.39440489,6.84347183 6.39140489,6.83747183 C6.38340489,6.81547183 6.37340489,6.79347183 6.36440489,6.77147183 C6.34040489,6.71447183 6.31540489,6.65447183 6.30740489,6.59047183 C6.30040489,6.52547183 6.30840489,6.45447183 6.31640489,6.37947183 L6.28640489,6.37947183 C6.29340489,6.39547183 6.29440489,6.40747183 6.29440489,6.41647183 L6.28940489,6.42547183 C6.25940489,6.46647183 6.22540489,6.49647183 6.21740489,6.49647183 C6.18240489,6.48447183 6.13440489,6.45847183 6.11340489,6.39947183 C6.09540489,6.34747183 6.06940489,6.31147183 6.04040489,6.28347183 C5.97540489,6.30447183 5.91640489,6.31647183 5.85240489,6.31747183 C5.82640489,6.31847183 5.80140489,6.31747183 5.77940489,6.31647183 L5.75540489,6.21847183 L5.72740489,6.10447183 L5.72440489,6.09047183 L5.69740489,6.09147183 L5.66340489,6.09247183 L5.63340489,6.09247183 L5.60040489,6.09347183 C5.53140489,6.14147183 5.50140489,6.14647183 5.49140489,6.08847183 C5.43340489,6.07847183 5.43840489,6.04847183 5.48640489,5.98647183 L5.48740489,5.94647183 L5.48740489,5.91647183 L5.48840489,5.88247183 L5.48940489,5.85647183 L5.47540489,5.85247183 L5.36140489,5.82447183 L5.26340489,5.80047183 C5.26240489,5.77847183 5.26140489,5.75347183 5.26240489,5.72747183 C5.26340489,5.66347183 5.27540489,5.60447183 5.29640489,5.53947183 C5.26840489,5.51047183 5.23140489,5.48447183 5.18040489,5.46647183 C5.12140489,5.44547183 5.09540489,5.39747183 5.08440489,5.36247183 C5.08340489,5.35447183 5.11340489,5.32047183 5.15440489,5.29047183 L5.16340489,5.28547183 C5.17240489,5.28547183 5.18440489,5.28647183 5.20040489,5.29347183 C5.21740489,5.30147183 5.24040489,5.30347183 5.26040489,5.30447183 L5.28640489,5.30647183 C5.29840489,5.30947183 5.31140489,5.31147183 5.32340489,5.31447183 C5.32440489,5.30347183 5.32440489,5.29647183 5.32440489,5.28947183 L5.32840489,5.25247183 L5.30640489,5.25347183 L5.20040489,5.26347183 C5.12540489,5.27247183 5.05440489,5.27947183 4.98940489,5.27247183 C4.92540489,5.26447183 4.86540489,5.23947183 4.80840489,5.21547183 C4.78640489,5.20547183 4.76440489,5.19647183 4.74240489,5.18847183 C4.73640489,5.18647183 4.72440489,5.18147183 4.71840489,5.17647183 C4.71940489,5.16647183 4.72040489,5.15647183 4.72040489,5.14747183 C4.72340489,5.01647183 4.66040489,5.00547183 4.60940489,4.99647183 C4.59940489,4.99547183 4.58940489,4.99347183 4.58040489,4.99147183 C4.55840489,4.98547183 4.54240489,4.98147183 4.53740489,4.97047183 C4.48340489,4.85347183 4.38940489,4.83447183 4.29740489,4.81647183 C4.27940489,4.81247183 4.26140489,4.80947183 4.24440489,4.80447183 C4.16440489,4.78547183 4.09240489,4.73847183 4.03340489,4.69347183 C4.00840489,4.67547183 3.99140489,4.63347183 3.98940489,4.58947183 C3.98340489,4.44247183 3.91340489,4.43147183 3.86040489,4.43647183 C3.83840489,4.43947183 3.81540489,4.44747183 3.79340489,4.45447183 L3.76677989,4.46384683 L3.74240489,4.46947183 C3.58540489,4.49347183 3.49240489,4.39147183 3.45740489,4.15747183 C3.44840489,4.09347183 3.42440489,4.04847183 3.40140489,4.00547183 L3.37540489,3.95547183 C3.37040489,3.94347183 3.36140489,3.93847183 3.35440489,3.93547183 C3.33040489,3.91247183 3.31340489,3.89347183 3.29640489,3.87547183 C3.21040489,3.77747183 3.12040489,3.67647183 2.96740489,3.70247183 C2.92140489,3.71047183 2.88340489,3.63647183 2.86640489,3.55947183 C2.84740489,3.47947183 2.81340489,3.45347183 2.76640489,3.43747183 C2.66440489,3.40447183 2.61540489,3.29747183 2.61940489,3.11747183 L2.62140489,3.08347183 C2.62140489,3.07547183 2.62140489,3.06647183 2.62240489,3.05847183 C2.62540489,2.93347183 2.59240489,2.86547183 2.52440489,2.85547183 C2.47940489,2.84947183 2.45140489,2.81547183 2.43640489,2.74647183 C2.42340489,2.68947183 2.38940489,2.66447183 2.35140489,2.64247183 C2.25440489,2.58247183 2.17540489,2.52847183 2.11940489,2.41947183 C2.06140489,2.30247183 1.97840489,2.15947183 1.86740489,2.08847183 C1.76440489,2.02247183 1.68440489,1.95747183 1.65840489,1.77747183 C1.65040489,1.71247183 1.60340489,1.67847183 1.52040489,1.67647183 C1.45040489,1.67447183 1.42540489,1.63947183 1.42740489,1.54647183 C1.42840489,1.49847183 1.41340489,1.45947183 1.38040489,1.42947183 C1.35640489,1.40747183 1.32540489,1.39247183 1.28240489,1.38247183 C1.27240489,1.34047183 1.25740489,1.30947183 1.23540489,1.28447183 C1.20540489,1.25247183 1.16640489,1.23647183 1.11940489,1.23747183 C1.02540489,1.23947183 0.991404895,1.21447183 0.989404895,1.14547183 C0.986404895,1.06247183 0.952404895,1.01547183 0.887404895,1.00647183 C0.707404895,0.981471828 0.642404895,0.900471828 0.576404895,0.797471828 C0.505404895,0.686471828 0.362404895,0.604471828 0.246404895,0.545471828 C0.246404895,0.545471828 -0.0565951052,0.340471828 0.00940489477,0.177471828 Z"></path></clipPath><clipPath id="i2"><path d="M12.8884718,0.000136874092 C13.1234718,0.00413687409 13.1784718,0.216136874 13.0724718,0.485136874 C13.0484718,0.545136874 12.9634718,0.518136874 12.9204718,0.541136874 L12.8704718,0.567136874 C12.8574718,0.573136874 12.8534718,0.582136874 12.8494718,0.588136874 C12.8274718,0.612136874 12.8084718,0.629136874 12.7894718,0.646136874 C12.6914718,0.733136874 12.5904718,0.822136874 12.6174718,0.976136874 C12.6244718,1.02113687 12.5514718,1.05913687 12.4744718,1.07613687 C12.3944718,1.09513687 12.3674718,1.12913687 12.3524718,1.17613687 C12.3194718,1.27813687 12.2114718,1.32713687 12.0324718,1.32313687 C12.0214718,1.32313687 12.0104718,1.32213687 11.9984718,1.32213687 C11.9894718,1.32113687 11.9814718,1.32113687 11.9734718,1.32113687 C11.8484718,1.31813687 11.7794718,1.35113687 11.7704718,1.41813687 C11.7634718,1.46413687 11.7304718,1.49113687 11.6614718,1.50613687 C11.6044718,1.51913687 11.5794718,1.55413687 11.5564718,1.59113687 C11.4974718,1.68813687 11.4434718,1.76713687 11.3334718,1.82313687 C11.2174718,1.88213687 11.0744718,1.96413687 11.0034718,2.07513687 C10.9374718,2.17813687 10.8724718,2.25913687 10.6924718,2.28413687 C10.6274718,2.29313687 10.5934718,2.34013687 10.5904718,2.42313687 C10.5894718,2.49213687 10.5544718,2.51713687 10.4604718,2.51513687 C10.4134718,2.51413687 10.3744718,2.53013687 10.3444718,2.56213687 C10.3224718,2.58613687 10.3074718,2.61813687 10.2974718,2.66013687 C10.2554718,2.67013687 10.2234718,2.68513687 10.1994718,2.70713687 C10.1674718,2.73713687 10.1514718,2.77613687 10.1524718,2.82413687 C10.1544718,2.91713687 10.1294718,2.95213687 10.0594718,2.95413687 C9.97647183,2.95613687 9.93047183,2.99013687 9.92147183,3.05513687 C9.89547183,3.23513687 9.81547183,3.30013687 9.71247183,3.36613687 C9.60147183,3.43713687 9.51947183,3.58013687 9.46047183,3.69713687 C9.40447183,3.80613687 9.32547183,3.86013687 9.22847183,3.92013687 C9.19047183,3.94213687 9.15647183,3.96713687 9.14347183,4.02413687 C9.12847183,4.09313687 9.10147183,4.12713687 9.05547183,4.13313687 C8.98747183,4.14213687 8.95547183,4.21113687 8.95747183,4.33613687 C8.95747183,4.34413687 8.95847183,4.35313687 8.95847183,4.36113687 L8.96047183,4.39513687 C8.96447183,4.57513687 8.91547183,4.68313687 8.81347183,4.71613687 C8.76647183,4.73113687 8.73247183,4.75713687 8.71347183,4.83713687 C8.69647183,4.91413687 8.65847183,4.98813687 8.61347183,4.98013687 C8.45947183,4.95413687 8.36947183,5.05513687 8.28347183,5.15313687 C8.26647183,5.17113687 8.24947183,5.19013687 8.23247183,5.20813687 C8.21847183,5.21613687 8.20947183,5.22113687 8.20347183,5.23313687 C8.19547183,5.25113687 8.18747183,5.26713687 8.17847183,5.28313687 C8.15547183,5.32613687 8.13147183,5.37113687 8.12247183,5.43513687 C8.08747183,5.66913687 7.99447183,5.77113687 7.83747183,5.74713687 C7.82247183,5.74513687 7.80447183,5.73913687 7.78647183,5.73213687 C7.76447183,5.72513687 7.74147183,5.71713687 7.71947183,5.71413687 C7.66647183,5.70913687 7.59647183,5.72013687 7.59047183,5.86713687 C7.58847183,5.91113687 7.57147183,5.95313687 7.54647183,5.97213687 C7.48747183,6.01513687 7.41547183,6.06313687 7.33547183,6.08313687 C7.31847183,6.08713687 7.30047183,6.09013687 7.28247183,6.09413687 C7.19047183,6.11213687 7.09647183,6.13113687 7.04247183,6.24813687 C7.03747183,6.25913687 7.02147183,6.26313687 7.00747183,6.26613687 C6.99047183,6.27113687 6.98047183,6.27313687 6.97047183,6.27413687 C6.91947183,6.28313687 6.85647183,6.29313687 6.85947183,6.42513687 C6.86047183,6.43413687 6.86047183,6.44413687 6.86147183,6.45413687 L6.83747183,6.46613687 C6.81547183,6.47413687 6.79347183,6.48413687 6.77147183,6.49313687 C6.71447183,6.51713687 6.65447183,6.54213687 6.59047183,6.55013687 C6.52547183,6.55713687 6.45447183,6.54913687 6.37947183,6.54113687 L6.37947183,6.57113687 C6.39547183,6.56413687 6.40747183,6.56313687 6.41647183,6.56313687 L6.42547183,6.56813687 C6.46647183,6.59813687 6.49647183,6.63213687 6.49647183,6.64013687 C6.48447183,6.67513687 6.45847183,6.72313687 6.39947183,6.74413687 C6.34747183,6.76213687 6.31147183,6.78813687 6.28347183,6.81713687 C6.30447183,6.88213687 6.31647183,6.94113687 6.31747183,7.00513687 C6.31847183,7.03113687 6.31747183,7.05613687 6.31647183,7.07813687 L6.21847183,7.10213687 L6.10447183,7.13013687 L6.09047183,7.13313687 L6.09147183,7.16013687 L6.09247183,7.19413687 L6.09247183,7.22413687 L6.09347183,7.25713687 C6.14147183,7.32613687 6.14647183,7.35613687 6.08847183,7.36613687 C6.07847183,7.42413687 6.04847183,7.41913687 5.98647183,7.37113687 L5.94647183,7.37013687 L5.91647183,7.37013687 L5.88247183,7.36913687 L5.85647183,7.36813687 L5.85247183,7.38213687 L5.82447183,7.49613687 L5.80047183,7.59413687 C5.77847183,7.59513687 5.75347183,7.59613687 5.72747183,7.59513687 C5.66347183,7.59413687 5.60447183,7.58213687 5.53947183,7.56113687 C5.51047183,7.58913687 5.48447183,7.62613687 5.46647183,7.67713687 C5.44547183,7.73613687 5.39747183,7.76213687 5.36247183,7.77313687 C5.35447183,7.77413687 5.32047183,7.74413687 5.29047183,7.70313687 L5.28547183,7.69413687 C5.28547183,7.68513687 5.28647183,7.67313687 5.29347183,7.65713687 C5.30147183,7.64013687 5.30347183,7.61713687 5.30447183,7.59713687 C5.30447183,7.58813687 5.30547183,7.57913687 5.30647183,7.57113687 C5.30947183,7.55913687 5.31147183,7.54613687 5.31447183,7.53413687 C5.30347183,7.53313687 5.29647183,7.53313687 5.28947183,7.53313687 L5.25247183,7.52913687 L5.25347183,7.55113687 L5.26347183,7.65713687 C5.27247183,7.73213687 5.27947183,7.80313687 5.27247183,7.86813687 C5.26447183,7.93213687 5.23947183,7.99213687 5.21547183,8.04913687 C5.20547183,8.07113687 5.19647183,8.09313687 5.18847183,8.11513687 C5.18647183,8.12113687 5.18147183,8.13313687 5.17647183,8.13913687 C5.16647183,8.13813687 5.15647183,8.13713687 5.14747183,8.13713687 C5.01647183,8.13413687 5.00547183,8.19713687 4.99647183,8.24813687 C4.99547183,8.25813687 4.99347183,8.26813687 4.99147183,8.27713687 C4.98547183,8.29913687 4.98147183,8.31513687 4.97047183,8.32013687 C4.85347183,8.37413687 4.83447183,8.46813687 4.81647183,8.56013687 C4.81247183,8.57813687 4.80947183,8.59613687 4.80447183,8.61313687 C4.78547183,8.69313687 4.73847183,8.76513687 4.69347183,8.82413687 C4.67547183,8.84913687 4.63347183,8.86613687 4.58947183,8.86813687 C4.44247183,8.87413687 4.43147183,8.94413687 4.43647183,8.99713687 C4.43947183,9.01913687 4.44747183,9.04213687 4.45447183,9.06413687 C4.46147183,9.08213687 4.46747183,9.10013687 4.46947183,9.11513687 C4.49347183,9.27213687 4.39147183,9.36513687 4.15747183,9.40013687 C4.09347183,9.40913687 4.04847183,9.43313687 4.00547183,9.45613687 L3.95547183,9.48213687 C3.94347183,9.48713687 3.93847183,9.49613687 3.93547183,9.50313687 C3.91247183,9.52713687 3.89347183,9.54413687 3.87547183,9.56113687 C3.77747183,9.64713687 3.67647183,9.73713687 3.70247183,9.89013687 C3.71047183,9.93613687 3.63647183,9.97413687 3.55947183,9.99113687 C3.47947183,10.0101369 3.45347183,10.0441369 3.43747183,10.0911369 C3.40447183,10.1931369 3.29747183,10.2421369 3.11747183,10.2381369 L3.08347183,10.2361369 C3.07547183,10.2361369 3.06647183,10.2361369 3.05847183,10.2351369 C2.93347183,10.2321369 2.86547183,10.2651369 2.85547183,10.3331369 C2.84947183,10.3781369 2.81547183,10.4061369 2.74647183,10.4211369 C2.68947183,10.4341369 2.66447183,10.4681369 2.64247183,10.5061369 C2.58247183,10.6031369 2.52847183,10.6821369 2.41947183,10.7381369 C2.30247183,10.7961369 2.15947183,10.8791369 2.08847183,10.9901369 C2.02247183,11.0931369 1.95747183,11.1731369 1.77747183,11.1991369 C1.71247183,11.2071369 1.67847183,11.2541369 1.67647183,11.3371369 C1.67447183,11.4071369 1.63947183,11.4321369 1.54647183,11.4301369 C1.49847183,11.4291369 1.45947183,11.4441369 1.42947183,11.4771369 C1.40747183,11.5011369 1.39247183,11.5321369 1.38247183,11.5751369 C1.34047183,11.5851369 1.30947183,11.6001369 1.28447183,11.6221369 C1.25247183,11.6521369 1.23647183,11.6911369 1.23747183,11.7381369 C1.23947183,11.8321369 1.21447183,11.8661369 1.14547183,11.8681369 C1.06247183,11.8711369 1.01547183,11.9051369 1.00647183,11.9701369 C0.981471828,12.1501369 0.900471828,12.2151369 0.797471828,12.2811369 C0.686471828,12.3521369 0.604471828,12.4951369 0.545471828,12.6111369 C0.545471828,12.6111369 0.340471828,12.9141369 0.177471828,12.8481369 C0.0144718282,12.7811369 -0.0745281718,12.5361369 0.0804718282,12.3801369 C0.138471828,12.3211369 0.197471828,12.2821369 0.234471828,12.2241369 C0.257471828,12.1891369 0.279471828,12.1541369 0.301471828,12.1191369 C0.455471828,11.8771369 0.614471828,11.6271369 0.815471828,11.4641369 C0.852471828,11.4341369 0.868471828,11.3831369 0.868471828,11.3001369 C0.868471828,11.1881369 0.898471828,11.1471369 0.944471828,11.1371369 C0.954471828,11.0911369 0.995471828,11.0611369 1.10747183,11.0611369 C1.19147183,11.0611369 1.24147183,11.0441369 1.27247183,11.0071369 C1.43547183,10.8061369 1.68547183,10.6471369 1.92647183,10.4941369 C1.96247183,10.4721369 1.99747183,10.4491369 2.03247183,10.4271369 C2.09047183,10.3901369 2.13947183,10.3401369 2.18747183,10.2721369 C2.22347183,10.2211369 2.27547183,10.1661369 2.38547183,10.1391369 C2.46447183,10.1191369 2.52147183,10.0721369 2.53447183,10.0171369 C2.55247183,9.93713687 2.63147183,9.89613687 2.71347183,9.86413687 C2.75647183,9.84713687 2.78747183,9.82313687 2.81847183,9.80013687 C2.83047183,9.79113687 2.84247183,9.78213687 2.85547183,9.77313687 C2.87447183,9.76113687 2.89647183,9.74813687 2.87347183,9.72113687 C2.81347183,9.64813687 2.84747183,9.61813687 2.90847183,9.57513687 C2.94647183,9.54913687 2.98447183,9.52213687 2.98747183,9.48013687 C2.99047183,9.47713687 3.01247183,9.47213687 3.05547183,9.47213687 C3.18247183,9.47313687 3.24147183,9.43613687 3.22847183,9.36413687 C3.21447183,9.29213687 3.26847183,9.25513687 3.35947183,9.21913687 C3.49147183,9.16713687 3.57847183,9.10913687 3.57647183,8.99613687 C3.57447183,8.93013687 3.63147183,8.89613687 3.73547183,8.89813687 C3.74947183,8.89813687 3.76447183,8.89913687 3.77947183,8.90113687 C3.79947183,8.90313687 3.82047183,8.90413687 3.84347183,8.90513687 L3.92947183,8.90513687 L3.95947183,8.90613687 L3.95947183,8.88813687 C3.95947183,8.87013687 3.95847183,8.85213687 3.95647183,8.83413687 C3.95247183,8.79913687 3.94947183,8.76613687 3.96447183,8.74413687 C3.97747183,8.72613687 4.00647183,8.71413687 4.03747183,8.70213687 C4.06147183,8.69213687 4.08747183,8.68113687 4.10647183,8.66713687 C4.15147183,8.63513687 4.16947183,8.60413687 4.16447183,8.56913687 C4.15047183,8.46713687 4.21347183,8.40013687 4.27947183,8.32813687 C4.29447183,8.31213687 4.30847183,8.29713687 4.32247183,8.28013687 C4.33547183,8.26513687 4.35747183,8.25313687 4.38347183,8.24913687 C4.53747183,8.22113687 4.57947183,8.15513687 4.51847183,8.04013687 C4.49647183,7.99913687 4.51947183,7.97513687 4.58447183,7.97413687 C4.82647183,7.96913687 4.87147183,7.85813687 4.88347183,7.73813687 L4.88647183,7.71213687 C4.88947183,7.67313687 4.89347183,7.63313687 4.90247183,7.59613687 C4.91547183,7.54613687 4.95647183,7.52213687 5.02847183,7.52413687 C5.03847183,7.52413687 5.04847183,7.52513687 5.06047183,7.52613687 C5.07747183,7.52813687 5.09447183,7.52913687 5.10947183,7.53013687 C5.25147183,7.53313687 5.27347183,7.46913687 5.27647183,7.41313687 C5.27947183,7.34813687 5.31947183,7.30513687 5.38047183,7.27413687 C5.41847183,7.18013687 5.47347183,7.11613687 5.56847183,7.12013687 C5.58747183,7.12113687 5.60347183,7.11413687 5.61747183,7.10613687 C5.62247183,7.10413687 5.62747183,7.10213687 5.63247183,7.10013687 C5.64947183,7.09313687 5.66747183,7.08713687 5.68547183,7.08113687 C5.71347183,7.07213687 5.73947183,7.05713687 5.76647183,7.04413687 C5.77947183,7.01713687 5.79547183,6.99113687 5.80347183,6.96313687 C5.80947183,6.94513687 5.81547183,6.92713687 5.82247183,6.91013687 C5.82447183,6.90513687 5.82647183,6.90013687 5.82847183,6.89513687 C5.83647183,6.88113687 5.84347183,6.86513687 5.84247183,6.84613687 C5.83847183,6.75113687 5.90247183,6.69613687 5.99647183,6.65813687 C6.02747183,6.59713687 6.07047183,6.55713687 6.13647183,6.55413687 C6.19147183,6.55113687 6.25547183,6.52913687 6.25247183,6.38713687 C6.25147183,6.37213687 6.25047183,6.35513687 6.24947183,6.33713687 C6.24747183,6.32613687 6.24747183,6.31613687 6.24647183,6.30613687 C6.24547183,6.23413687 6.26847183,6.19313687 6.31947183,6.18013687 C6.35547183,6.17213687 6.39547183,6.16713687 6.43447183,6.16413687 L6.46047183,6.16113687 C6.58047183,6.14913687 6.69247183,6.10413687 6.69647183,5.86213687 C6.69747183,5.79713687 6.72147183,5.77413687 6.76247183,5.79613687 C6.87747183,5.85713687 6.94447183,5.81413687 6.97147183,5.66113687 C6.97547183,5.63513687 6.98747183,5.61313687 7.00347183,5.60013687 C7.01947183,5.58613687 7.03547183,5.57213687 7.05047183,5.55713687 C7.12247183,5.49113687 7.18947183,5.42813687 7.29247183,5.44213687 C7.32647183,5.44713687 7.35747183,5.42913687 7.38947183,5.38413687 C7.40347183,5.36513687 7.41447183,5.33913687 7.42447183,5.31513687 C7.43747183,5.28413687 7.44847183,5.25513687 7.46647183,5.24213687 C7.48847183,5.22713687 7.52147183,5.23013687 7.55647183,5.23413687 C7.57447183,5.23513687 7.59247183,5.23713687 7.61047183,5.23713687 L7.62847183,5.23713687 L7.62747183,5.20713687 L7.62747183,5.12113687 C7.62647183,5.09813687 7.62547183,5.07713687 7.62347183,5.05713687 C7.62147183,5.04213687 7.62047183,5.02713687 7.62047183,5.01313687 C7.61747183,4.90913687 7.65247183,4.85313687 7.71847183,4.85413687 C7.83147183,4.85613687 7.88947183,4.76913687 7.94147183,4.63713687 C7.97747183,4.54613687 8.01447183,4.49213687 8.08647183,4.50613687 C8.15847183,4.52013687 8.19547183,4.46013687 8.19447183,4.33313687 C8.19447183,4.29013687 8.19947183,4.26813687 8.20247183,4.26513687 C8.24447183,4.26313687 8.27147183,4.22413687 8.29747183,4.18613687 C8.34047183,4.12513687 8.37047183,4.09013687 8.44347183,4.15113687 C8.47047183,4.17413687 8.48347183,4.15213687 8.49247183,4.13813687 C8.50447183,4.12013687 8.51347183,4.10813687 8.52247183,4.09613687 C8.54547183,4.06513687 8.56947183,4.03413687 8.58647183,3.99113687 C8.61847183,3.90913687 8.65947183,3.83013687 8.73947183,3.81213687 C8.79447183,3.79913687 8.84147183,3.74213687 8.86147183,3.66313687 C8.88847183,3.55313687 8.94447183,3.50113687 8.99447183,3.46513687 C9.06347183,3.41713687 9.11247183,3.36813687 9.14947183,3.31013687 C9.17247183,3.27513687 9.19447183,3.23913687 9.21647183,3.20413687 C9.37047183,2.96213687 9.52847183,2.71213687 9.72947183,2.55013687 C9.76647183,2.51913687 9.78347183,2.46913687 9.78347183,2.38513687 C9.78347183,2.27313687 9.81347183,2.23213687 9.85947183,2.22213687 C9.86947183,2.17613687 9.91047183,2.14613687 10.0224718,2.14613687 C10.1054718,2.14613687 10.1564718,2.13013687 10.1864718,2.09313687 C10.3494718,1.89213687 10.5994718,1.73313687 10.8414718,1.57913687 C10.8764718,1.55713687 10.9114718,1.53513687 10.9464718,1.51213687 C11.0044718,1.47513687 11.0544718,1.42613687 11.1024718,1.35813687 C11.1384718,1.30713687 11.1894718,1.25113687 11.3004718,1.22413687 C11.3794718,1.20413687 11.4364718,1.15813687 11.4494718,1.10213687 C11.4674718,1.02213687 11.5464718,0.981136874 11.6284718,0.949136874 C11.6714718,0.932136874 11.7024718,0.908136874 11.7324718,0.885136874 C11.7454718,0.876136874 11.7564718,0.867136874 11.7694718,0.859136874 C11.7894718,0.847136874 11.8104718,0.834136874 11.7884718,0.806136874 C11.7274718,0.733136874 11.7624718,0.703136874 11.8234718,0.660136874 C11.8614718,0.634136874 11.8994718,0.607136874 11.9024718,0.565136874 C11.9054718,0.562136874 11.9274718,0.557136874 11.9704718,0.557136874 C12.0974718,0.559136874 12.1564718,0.521136874 12.1424718,0.449136874 L12.1424718,0.410344874 C12.1525518,0.363336874 12.2016718,0.333736874 12.2744718,0.304136874 C12.4054718,0.252136874 12.4934718,0.194136874 12.4914718,0.0811368741 C12.4914718,0.0811368741 12.6534718,-0.00386312591 12.8884718,0.000136874092 Z"></path></clipPath></defs><g clip-path="url(#i0)"><polygon points="0,8.8817842e-16 27.9995,8.8817842e-16 27.9995,27.9995 0,27.9995 0,8.8817842e-16" stroke="none" fill="#6B7E7C"></polygon></g><g transform="translate(7.580445105229597 7.412578171774354)"><g clip-path="url(#i1)"><polygon points="4.85722573e-17,1.22124533e-15 12.8575418,1.22124533e-15 12.8575418,13.1241547 4.85722573e-17,13.1241547 4.85722573e-17,1.22124533e-15" stroke="none" fill="#FFFFFF"></polygon></g></g><g transform="translate(7.549378171774359 7.561513125908309)"><g clip-path="url(#i2)"><polygon points="-1.94289029e-16,1.06568942e-15 13.1241547,1.06568942e-15 13.1241547,12.8575418 -1.94289029e-16,12.8575418 -1.94289029e-16,1.06568942e-15" stroke="none" fill="#FFFFFF"></polygon></g></g></svg>