<?xml version="1.0" encoding="UTF-8"?><svg version="1.1" width="28px" height="29px" viewBox="0 0 28.0 29.0" xmlns="http://www.w3.org/2000/svg" xmlns:xlink="http://www.w3.org/1999/xlink"><defs><clipPath id="i0"><path d="M14,0 C21.732,0 28,6.268 28,14 C28,21.732 21.732,28 14,28 C6.268,28 0,21.732 0,14 C0,6.268 6.268,0 14,0 Z"></path></clipPath><clipPath id="i1"><path d="M14.3799851,0.0126172181 C14.4199851,-0.0123827819 14.4699851,-0.00438278192 14.5489851,0.0746172181 C14.6079851,0.133617218 14.6549851,0.157617218 14.7029851,0.152617218 C14.9599851,0.125617218 15.2489851,0.190617218 15.5289851,0.252617218 L15.6509851,0.280617218 C15.7179851,0.294617218 15.7879851,0.294617218 15.8699851,0.280617218 C15.9309851,0.270617218 16.0069851,0.267617218 16.1039851,0.326617218 C16.1749851,0.368617218 16.2479851,0.375617218 16.2959851,0.345617218 C16.3649851,0.301617218 16.4499851,0.328617218 16.5309851,0.363617218 C16.5729851,0.381617218 16.6119851,0.387617218 16.6499851,0.392617218 C16.6649851,0.394617218 16.6799851,0.396617218 16.6949851,0.399617218 L16.7188369,0.403913514 C16.7312073,0.404506107 16.7429851,0.399617218 16.7449851,0.375617218 C16.7539851,0.281617218 16.7989851,0.284617218 16.8729851,0.297617218 C16.9179851,0.305617218 16.9639851,0.313617218 16.9959851,0.285617218 C16.9999851,0.285617218 17.0189851,0.297617218 17.0499851,0.328617218 C17.1379851,0.418617218 17.2069851,0.434617218 17.2479851,0.373617218 C17.2889851,0.313617218 17.3529851,0.325617218 17.4429851,0.364617218 C17.5729851,0.420617218 17.6759851,0.441617218 17.7539851,0.359617218 C17.7539851,0.359617218 17.9299851,0.415617218 18.0929851,0.583617218 C18.2559851,0.751617218 18.1449851,0.941617218 17.8799851,1.05661722 C17.8209851,1.08261722 17.7799851,1.00361722 17.7329851,0.988617218 C17.7149851,0.983617218 17.6969851,0.978617218 17.6799851,0.971617218 C17.6659851,0.966617218 17.6569851,0.969617218 17.6499851,0.972617218 C17.6169851,0.973617218 17.5909851,0.971617218 17.5659851,0.970617218 C17.4359851,0.962617218 17.3009851,0.954617218 17.2109851,1.08161722 C17.1849851,1.11961722 17.1059851,1.09361722 17.0389851,1.05161722 C16.9699851,1.00861722 16.9259851,1.01361722 16.8819851,1.03661722 C16.7869851,1.08461722 16.6759851,1.04361722 16.5519851,0.913617218 C16.5449851,0.905617218 16.5369851,0.897617218 16.5289851,0.888617218 C16.5229851,0.882617218 16.5179851,0.875617218 16.5119851,0.870617218 C16.4259851,0.779617218 16.3539851,0.754617218 16.2989851,0.795617218 C16.2629851,0.823617218 16.2199851,0.818617218 16.1599851,0.780617218 C16.1109851,0.749617218 16.0689851,0.756617218 16.0259851,0.767617218 C15.9159851,0.793617218 15.8219851,0.811617218 15.7049851,0.773617218 C15.5799851,0.732617218 15.4209851,0.689617218 15.2929851,0.717617218 C15.1729851,0.743617218 15.0699851,0.755617218 14.9249851,0.645617218 C14.8729851,0.605617218 14.8159851,0.615617218 14.7549851,0.671617218 C14.7049851,0.719617218 14.6619851,0.712617218 14.5979851,0.645617218 C14.5649851,0.611617218 14.5259851,0.594617218 14.4819851,0.596617218 C14.4489851,0.597617218 14.4169851,0.609617218 14.3799851,0.632617218 C14.3429851,0.609617218 14.3099851,0.597617218 14.2769851,0.596617218 C14.2329851,0.594617218 14.1939851,0.611617218 14.1609851,0.645617218 C14.0969851,0.712617218 14.0549851,0.719617218 14.0039851,0.671617218 C13.9439851,0.615617218 13.8869851,0.605617218 13.8339851,0.645617218 C13.6889851,0.755617218 13.5859851,0.743617218 13.4669851,0.717617218 C13.3379851,0.689617218 13.1789851,0.732617218 13.0549851,0.773617218 C12.9379851,0.811617218 12.8439851,0.793617218 12.7329851,0.767617218 C12.6909851,0.756617218 12.6489851,0.749617218 12.5989851,0.780617218 C12.5399851,0.818617218 12.4969851,0.823617218 12.4599851,0.795617218 L12.4254571,0.778937218 C12.3766251,0.767257218 12.3167851,0.797817218 12.2479851,0.870617218 L12.2299851,0.888617218 C12.2229851,0.897617218 12.2149851,0.905617218 12.2069851,0.913617218 C12.0829851,1.04361722 11.9719851,1.08461722 11.8769851,1.03661722 C11.8329851,1.01361722 11.7899851,1.00861722 11.7209851,1.05161722 C11.6539851,1.09361722 11.5749851,1.11961722 11.5479851,1.08161722 C11.4589851,0.954617218 11.3239851,0.962617218 11.1929851,0.970617218 C11.1679851,0.971617218 11.1429851,0.973617218 11.1179851,0.973617218 L11.0972351,0.969117218 L11.0799851,0.971617218 C11.0619851,0.978617218 11.0449851,0.983617218 11.0269851,0.988617218 C10.9799851,1.00361722 10.9319851,1.01761722 10.8789851,1.05661722 C10.6889851,1.19761722 10.5509851,1.20361722 10.4579851,1.07661722 C10.4479851,1.06361722 10.4399851,1.04661722 10.4319851,1.02961722 C10.4219851,1.00861722 10.4109851,0.986617218 10.3969851,0.968617218 C10.3639851,0.928617218 10.3059851,0.885617218 10.1979851,0.985617218 C10.1659851,1.01561722 10.1239851,1.03361722 10.0929851,1.02861722 C10.0199851,1.01761722 9.93598505,1.00061722 9.86598505,0.958617218 L9.81998505,0.928617218 C9.74198505,0.876617218 9.66198505,0.822617218 9.54098505,0.868617218 C9.52998505,0.872617218 9.51598505,0.863617218 9.50398505,0.856617218 C9.48798505,0.847617218 9.47998505,0.841617218 9.47198505,0.835617218 C9.42998505,0.805617218 9.37798505,0.768617218 9.28698505,0.863617218 C9.28098505,0.870617218 9.27398505,0.877617218 9.26798505,0.884617218 C9.25998505,0.884617218 9.24798505,0.879617218 9.24298505,0.877617218 L9.17698505,0.849617218 C9.11898505,0.825617218 9.05898505,0.801617218 9.00798505,0.761617218 C8.95698505,0.720617218 8.91198505,0.665617218 8.86498505,0.606617218 L8.84398505,0.627617218 C8.85998505,0.633617218 8.86998505,0.641617218 8.87598505,0.648617218 L8.87898505,0.658617218 C8.88598505,0.708617218 8.88298505,0.753617218 8.87798505,0.758617218 C8.84398505,0.775617218 8.79198505,0.790617218 8.73598505,0.763617218 C8.68698505,0.740617218 8.64298505,0.732617218 8.60198505,0.733617218 C8.57098505,0.794617218 8.53798505,0.844617218 8.49298505,0.890617218 C8.47598505,0.909617218 8.45798505,0.926617218 8.44098505,0.941617218 L8.35498505,0.889617218 L8.25498505,0.828617218 L8.24198505,0.820617218 L8.22398505,0.840617218 L8.19998505,0.864617218 L8.17998505,0.886617218 L8.15698505,0.910617218 C8.14198505,0.992617218 8.12398505,1.01761722 8.07598505,0.983617218 C8.02798505,1.01761722 8.00998505,0.992617218 8.00098505,0.915617218 L7.97198505,0.886617218 L7.95198505,0.864617218 L7.92798505,0.840617218 L7.90998505,0.820617218 L7.89798505,0.828617218 L7.79698505,0.889617218 L7.71198505,0.941617218 C7.69498505,0.926617218 7.67698505,0.909617218 7.65898505,0.890617218 C7.61498505,0.844617218 7.58098505,0.794617218 7.54998505,0.733617218 C7.50898505,0.732617218 7.46598505,0.740617218 7.41598505,0.763617218 C7.35998505,0.790617218 7.30798505,0.775617218 7.27398505,0.758617218 C7.26898505,0.753617218 7.26598505,0.708617218 7.27398505,0.658617218 C7.27398505,0.652617218 7.27598505,0.649617218 7.27598505,0.648617218 L7.28861005,0.637742218 L7.30798505,0.627617218 C7.32598505,0.620617218 7.34298505,0.605617218 7.35898505,0.592617218 C7.36498505,0.586617218 7.37198505,0.580617218 7.37798505,0.575617218 C7.38898505,0.568617218 7.39898505,0.561617218 7.40998505,0.554617218 C7.40298505,0.547617218 7.39798505,0.541617218 7.39298505,0.536617218 L7.36898505,0.507617218 L7.35498505,0.523617218 C7.33198505,0.551617218 7.30898505,0.579617218 7.28698505,0.606617218 C7.23998505,0.665617218 7.19498505,0.720617218 7.14398505,0.761617218 C7.09398505,0.801617218 7.03398505,0.825617218 6.97498505,0.849617218 C6.95298505,0.858617218 6.93198505,0.867617218 6.90998505,0.877617218 C6.90398505,0.879617218 6.89198505,0.884617218 6.88498505,0.884617218 C6.87798505,0.877617218 6.87198505,0.870617218 6.86598505,0.863617218 C6.77498505,0.768617218 6.72298505,0.805617218 6.68098505,0.835617218 C6.67198505,0.841617218 6.66398505,0.847617218 6.65598505,0.851617218 C6.63598505,0.863617218 6.62198505,0.872617218 6.61098505,0.868617218 C6.48998505,0.822617218 6.40998505,0.876617218 6.33198505,0.928617218 C6.31698505,0.938617218 6.30198505,0.948617218 6.28598505,0.958617218 C6.21598505,1.00061722 6.13198505,1.01761722 6.05898505,1.02861722 C6.02898505,1.03361722 5.98598505,1.01561722 5.95398505,0.985617218 C5.84598505,0.885617218 5.78898505,0.928617218 5.75498505,0.968617218 C5.74098505,0.986617218 5.73098505,1.00861722 5.72098505,1.02961722 C5.71198505,1.04661722 5.70398505,1.06361722 5.69498505,1.07661722 C5.60098505,1.20361722 5.46298505,1.19761722 5.27298505,1.05661722 C5.22098505,1.01761722 5.17198505,1.00361722 5.12598505,0.988617218 C5.10798505,0.983617218 5.08998505,0.978617218 5.07198505,0.971617218 C5.05898505,0.966617218 5.04998505,0.969617218 5.04198505,0.972617218 C5.00898505,0.973617218 4.98398505,0.971617218 4.95898505,0.970617218 C4.82798505,0.962617218 4.69398505,0.954617218 4.60398505,1.08161722 C4.57698505,1.11961722 4.49798505,1.09361722 4.43198505,1.05161722 C4.36198505,1.00861722 4.31898505,1.01361722 4.27498505,1.03661722 C4.17998505,1.08461722 4.06898505,1.04361722 3.94498505,0.913617218 C3.93698505,0.905617218 3.92998505,0.897617218 3.92198505,0.888617218 C3.91598505,0.882617218 3.90998505,0.875617218 3.90498505,0.870617218 C3.81798505,0.779617218 3.74698505,0.754617218 3.69198505,0.795617218 C3.65598505,0.823617218 3.61298505,0.818617218 3.55298505,0.780617218 C3.50398505,0.749617218 3.46198505,0.756617218 3.41898505,0.767617218 C3.30798505,0.793617218 3.21398505,0.811617218 3.09798505,0.773617218 C2.97298505,0.732617218 2.81398505,0.689617218 2.68498505,0.717617218 C2.56598505,0.743617218 2.46298505,0.755617218 2.31798505,0.645617218 C2.26598505,0.605617218 2.20798505,0.615617218 2.14798505,0.671617218 C2.09698505,0.719617218 2.05498505,0.712617218 1.99098505,0.645617218 C1.95798505,0.611617218 1.91898505,0.594617218 1.87498505,0.596617218 C1.84198505,0.597617218 1.80998505,0.609617218 1.77198505,0.632617218 C1.73498505,0.609617218 1.70298505,0.597617218 1.66998505,0.596617218 C1.62598505,0.594617218 1.58698505,0.611617218 1.55398505,0.645617218 C1.48998505,0.712617218 1.44798505,0.719617218 1.39698505,0.671617218 C1.33698505,0.615617218 1.27998505,0.605617218 1.22698505,0.645617218 C1.08198505,0.755617218 0.978985051,0.743617218 0.859985051,0.717617218 C0.730985051,0.689617218 0.571985051,0.732617218 0.446985051,0.773617218 C0.446985051,0.773617218 0.0889850509,0.842617218 0.0199850509,0.680617218 C-0.0480149491,0.517617218 0.0619850509,0.281617218 0.281985051,0.280617218 C0.364985051,0.280617218 0.433985051,0.294617218 0.501985051,0.279617218 C0.541985051,0.271617218 0.582985051,0.261617218 0.622985051,0.252617218 C0.902985051,0.190617218 1.19198505,0.125617218 1.44998505,0.152617218 C1.49698505,0.157617218 1.54398505,0.133617218 1.60398505,0.0746172181 C1.68198505,-0.00438278192 1.73298505,-0.0123827819 1.77198505,0.0126172181 C1.81198505,-0.0123827819 1.86298505,-0.00438278192 1.94198505,0.0746172181 C2.00098505,0.133617218 2.04798505,0.157617218 2.09598505,0.152617218 C2.35298505,0.125617218 2.64198505,0.190617218 2.92198505,0.252617218 C2.96198505,0.261617218 3.00298505,0.271617218 3.04298505,0.280617218 C3.11098505,0.294617218 3.18098505,0.294617218 3.26298505,0.280617218 C3.32398505,0.270617218 3.39998505,0.267617218 3.49698505,0.326617218 C3.56698505,0.368617218 3.64098505,0.375617218 3.68898505,0.345617218 C3.75798505,0.301617218 3.84298505,0.328617218 3.92298505,0.363617218 C3.96598505,0.381617218 4.00498505,0.387617218 4.04298505,0.392617218 C4.05798505,0.394617218 4.07298505,0.396617218 4.08798505,0.399617218 C4.10998505,0.404617218 4.13398505,0.411617218 4.13798505,0.375617218 C4.14698505,0.281617218 4.19198505,0.284617218 4.26598505,0.297617218 C4.31098505,0.305617218 4.35698505,0.313617218 4.38898505,0.285617218 C4.39298505,0.285617218 4.41198505,0.297617218 4.44198505,0.328617218 C4.53098505,0.418617218 4.59898505,0.434617218 4.64098505,0.373617218 L4.66836905,0.345897218 C4.70862505,0.319497218 4.76398505,0.333417218 4.83598505,0.364617218 C4.96598505,0.420617218 5.06898505,0.441617218 5.14698505,0.359617218 C5.19298505,0.312617218 5.25698505,0.328617218 5.32898505,0.403617218 C5.33898505,0.413617218 5.34898505,0.424617218 5.35898505,0.436617218 C5.37098505,0.451617218 5.38498505,0.467617218 5.40098505,0.483617218 C5.41198505,0.495617218 5.42298505,0.506617218 5.43398505,0.517617218 C5.44298505,0.527617218 5.45198505,0.536617218 5.46098505,0.545617218 L5.48198505,0.567617218 L5.49398505,0.554617218 C5.50698505,0.542617218 5.51898505,0.528617218 5.52998505,0.514617218 C5.55298505,0.486617218 5.57398505,0.461617218 5.59998505,0.456617218 C5.62098505,0.452617218 5.64998505,0.465617218 5.68198505,0.477617218 C5.70598505,0.488617218 5.73098505,0.498617218 5.75498505,0.502617218 C5.80898505,0.511617218 5.84398505,0.502617218 5.86498505,0.474617218 C5.92698505,0.392617218 6.01898505,0.388617218 6.11698505,0.385617218 L6.18098505,0.381617218 C6.20098505,0.379617218 6.22498505,0.387617218 6.24698505,0.402617218 C6.37398505,0.491617218 6.45098505,0.474617218 6.48898505,0.350617218 C6.50298505,0.305617218 6.53598505,0.305617218 6.58298505,0.350617218 C6.75698505,0.518617218 6.86798505,0.470617218 6.96098505,0.394617218 L6.98198505,0.378617218 C7.01198505,0.353617218 7.04198505,0.328617218 7.07498505,0.308617218 C7.11898505,0.281617218 7.16498505,0.293617218 7.21498505,0.346617218 C7.22198505,0.353617218 7.22798505,0.361617218 7.23498505,0.369617218 C7.24698505,0.383617218 7.25698505,0.396617218 7.26798505,0.406617218 C7.36598505,0.509617218 7.42698505,0.480617218 7.46798505,0.442617218 C7.51698505,0.399617218 7.57598505,0.397617218 7.64098505,0.417617218 C7.73398505,0.378617218 7.81798505,0.371617218 7.88198505,0.442617218 C7.89498505,0.456617218 7.91098505,0.462617218 7.92698505,0.467617218 C7.93198505,0.469617218 7.93698505,0.470617218 7.94198505,0.473617218 C7.95898505,0.480617218 7.97598505,0.488617218 7.99298505,0.497617218 C8.01898505,0.511617218 8.04798505,0.518617218 8.07598505,0.528617218 C8.10398505,0.518617218 8.13398505,0.511617218 8.15998505,0.497617218 C8.17698505,0.488617218 8.19298505,0.480617218 8.20998505,0.473617218 C8.21498505,0.470617218 8.21998505,0.469617218 8.22498505,0.467617218 C8.24098505,0.462617218 8.25698505,0.456617218 8.26998505,0.442617218 C8.33398505,0.371617218 8.41898505,0.378617218 8.51198505,0.417617218 C8.57698505,0.397617218 8.63498505,0.399617218 8.68398505,0.442617218 C8.72598505,0.480617218 8.78598505,0.509617218 8.88398505,0.406617218 C8.89498505,0.396617218 8.90598505,0.383617218 8.91698505,0.369617218 C8.92398505,0.361617218 8.93098505,0.353617218 8.93798505,0.346617218 C8.98798505,0.293617218 9.03298505,0.281617218 9.07798505,0.308617218 C9.10998505,0.328617218 9.14098505,0.353617218 9.17098505,0.378617218 L9.19098505,0.394617218 C9.28498505,0.470617218 9.39498505,0.518617218 9.56998505,0.350617218 C9.61598505,0.305617218 9.64898505,0.305617218 9.66298505,0.350617218 C9.70098505,0.474617218 9.77798505,0.491617218 9.90598505,0.402617218 C9.92698505,0.387617218 9.95098505,0.379617218 9.97198505,0.381617218 L10.0359851,0.385617218 C10.1329851,0.388617218 10.2249851,0.392617218 10.2879851,0.474617218 C10.3079851,0.502617218 10.3439851,0.511617218 10.3969851,0.502617218 C10.4209851,0.498617218 10.4469851,0.488617218 10.4709851,0.477617218 C10.5019851,0.465617218 10.5309851,0.452617218 10.5529851,0.456617218 C10.5779851,0.461617218 10.5999851,0.486617218 10.6219851,0.514617218 C10.6339851,0.528617218 10.6449851,0.542617218 10.6579851,0.554617218 L10.6699851,0.567617218 L10.6909851,0.545617218 L10.7354851,0.500992218 L10.7519851,0.483617218 C10.7679851,0.467617218 10.7809851,0.451617218 10.7939851,0.436617218 C10.8039851,0.424617218 10.8129851,0.413617218 10.8229851,0.403617218 C10.8949851,0.328617218 10.9589851,0.312617218 11.0049851,0.359617218 C11.0839851,0.441617218 11.1859851,0.420617218 11.3159851,0.364617218 C11.4059851,0.325617218 11.4699851,0.313617218 11.5109851,0.373617218 C11.5529851,0.434617218 11.6209851,0.418617218 11.7099851,0.328617218 C11.7399851,0.297617218 11.7589851,0.285617218 11.7639851,0.285617218 C11.7949851,0.313617218 11.8419851,0.305617218 11.8869851,0.297617218 C11.9599851,0.284617218 12.0059851,0.281617218 12.0149851,0.375617218 C12.0179851,0.411617218 12.0429851,0.404617218 12.0589851,0.400617218 C12.0799851,0.396617218 12.0949851,0.394617218 12.1099851,0.392617218 C12.1469851,0.387617218 12.1859851,0.381617218 12.2289851,0.363617218 C12.3099851,0.328617218 12.3939851,0.301617218 12.4639851,0.345617218 C12.5119851,0.375617218 12.5849851,0.368617218 12.6549851,0.326617218 C12.7519851,0.267617218 12.8279851,0.270617218 12.8889851,0.280617218 C12.9719851,0.294617218 13.0409851,0.294617218 13.1089851,0.280617218 L13.2309851,0.252617218 C13.5099851,0.190617218 13.7989851,0.125617218 14.0569851,0.152617218 C14.1039851,0.157617218 14.1519851,0.133617218 14.2109851,0.0746172181 C14.2899851,-0.00438278192 14.3399851,-0.0123827819 14.3799851,0.0126172181 Z"></path></clipPath></defs><g transform="translate(0.0 -62.0)"><g transform="translate(0.0 62.24625)"><g clip-path="url(#i0)"><polygon points="0,0 28,0 28,28 0,28 0,0" stroke="none" fill="#6B7E7C"></polygon></g><g transform="translate(4.915114949116564 13.319582781916647)"><g clip-path="url(#i1)"><polygon points="-1.37758764e-16,-5.61847329e-16 18.1692244,-5.61847329e-16 18.1692244,1.16735372 -1.37758764e-16,1.16735372 -1.37758764e-16,-5.61847329e-16" stroke="none" fill="#FFFFFF"></polygon></g></g></g></g></svg>