<svg version="1.1" id="Layer_1" xmlns="http://www.w3.org/2000/svg" xmlns:xlink="http://www.w3.org/1999/xlink" x="0px" y="0px"
	 width="100%" viewBox="0 0 800 800" enable-background="new 0 0 800 800" xml:space="preserve">
<path fill="#000000" opacity="1.000000" stroke="none" 
	d="
M523.000000,801.000000 
	C348.666656,801.000000 174.833328,801.000000 1.000000,801.000000 
	C1.000000,534.333313 1.000000,267.666656 1.000000,1.000000 
	C267.666656,1.000000 534.333313,1.000000 801.000000,1.000000 
	C801.000000,267.666656 801.000000,534.333313 801.000000,801.000000 
	C708.500000,801.000000 616.000000,801.000000 523.000000,801.000000 
M413.017975,548.849304 
	C415.972717,556.246033 418.927490,563.642700 422.002228,571.791748 
	C426.760132,584.076599 431.646667,596.314148 436.190399,608.677673 
	C437.407806,611.990234 438.979218,613.118225 442.544006,613.089417 
	C464.528473,612.911194 486.515167,613.004456 508.501099,612.989258 
	C509.937683,612.988281 511.374115,612.835571 513.120117,612.735718 
	C512.877380,611.242432 512.904236,610.045959 512.485535,609.033813 
	C505.015594,590.977539 497.458588,572.957214 489.988220,554.901123 
	C482.207611,536.095154 474.523956,517.249084 466.752106,498.439484 
	C459.539276,480.982941 452.235229,463.564056 445.027405,446.105469 
	C436.639313,425.788086 428.337738,405.434937 419.949280,385.117706 
	C414.665222,372.319580 409.328430,359.542694 403.891235,346.809204 
	C403.408447,345.678497 402.017029,344.232086 401.030243,344.218781 
	C400.050293,344.205597 398.910614,345.709778 398.098572,346.749664 
	C397.412415,347.628418 397.059113,348.780121 396.619446,349.836395 
	C385.166138,377.349701 373.681549,404.850067 362.284851,432.386810 
	C350.391785,461.122833 338.571106,489.888855 326.761169,518.659119 
	C325.586182,521.521667 324.705719,524.505005 323.491730,527.998779 
	C325.558380,527.998779 326.546509,527.998718 327.534668,527.998718 
	C351.852448,527.999084 376.170197,528.006897 400.487976,527.989258 
	C403.169373,527.987305 405.337646,527.738037 406.397949,531.468567 
	C408.020081,537.175903 410.714325,542.578552 413.017975,548.849304 
M282.735992,337.681366 
	C286.702698,328.046265 290.715393,318.429749 294.622406,308.770508 
	C298.087036,300.204895 301.434204,291.591797 305.165649,282.337433 
	C305.554657,281.623138 306.016174,280.938507 306.322144,280.190247 
	C315.811737,256.983490 325.303406,233.777527 334.752228,210.554138 
	C337.597748,203.560486 340.317596,196.515671 343.153412,189.346527 
	C284.076233,189.346527 225.683716,189.346527 167.293732,189.346527 
	C167.293732,330.724609 167.293732,471.755981 167.293732,612.787354 
	C167.703674,613.053894 168.113617,613.320374 168.523560,613.586914 
	C169.437027,612.529968 170.696747,611.618835 171.212280,610.394348 
	C179.493210,590.726074 187.787216,571.062012 195.858368,551.307068 
	C205.033600,528.849854 213.949966,506.286957 223.054428,483.800629 
	C230.999054,464.178894 239.030655,444.592285 247.056686,425.003632 
	C255.702499,403.902283 264.437256,382.837250 273.027435,361.713379 
	C276.210327,353.886383 279.092804,345.937256 282.735992,337.681366 
M595.080139,524.253906 
	C597.681702,530.066528 600.446899,535.812256 602.855896,541.703613 
	C612.226013,564.618164 621.456543,587.589844 630.857849,610.491455 
	C631.347046,611.683105 632.934265,612.424072 634.590088,613.887085 
	C634.590088,471.270172 634.590088,330.217834 634.590088,189.220367 
	C575.901001,189.220367 517.621460,189.220367 459.204559,189.220367 
	C459.295654,189.923111 459.259399,190.430511 459.430939,190.853653 
	C467.262543,210.174927 475.111145,229.489334 482.960419,248.803452 
	C490.993744,268.570312 499.025635,288.337799 507.065918,308.101837 
	C514.370605,326.057831 521.669128,344.016357 529.001404,361.961060 
	C535.656311,378.247772 542.375061,394.508362 549.025330,410.796967 
	C556.351685,428.741425 563.614624,446.711670 570.937012,464.657745 
	C578.938782,484.269104 586.976868,503.865631 595.080139,524.253906 
z"/>
<path fill="#FA0F00" opacity="1.000000" stroke="none" 
	d="
M595.039673,523.861267 
	C586.976868,503.865631 578.938782,484.269104 570.937012,464.657745 
	C563.614624,446.711670 556.351685,428.741425 549.025330,410.796967 
	C542.375061,394.508362 535.656311,378.247772 529.001404,361.961060 
	C521.669128,344.016357 514.370605,326.057831 507.065918,308.101837 
	C499.025635,288.337799 490.993744,268.570312 482.960419,248.803452 
	C475.111145,229.489334 467.262543,210.174927 459.430939,190.853653 
	C459.259399,190.430511 459.295654,189.923111 459.204559,189.220367 
	C517.621460,189.220367 575.901001,189.220367 634.590088,189.220367 
	C634.590088,330.217834 634.590088,471.270172 634.590088,613.887085 
	C632.934265,612.424072 631.347046,611.683105 630.857849,610.491455 
	C621.456543,587.589844 612.226013,564.618164 602.855896,541.703613 
	C600.446899,535.812256 597.681702,530.066528 595.039673,523.861267 
z"/>
<path fill="#FA0F00" opacity="1.000000" stroke="none" 
	d="
M282.112274,338.043823 
	C279.092804,345.937256 276.210327,353.886383 273.027435,361.713379 
	C264.437256,382.837250 255.702499,403.902283 247.056686,425.003632 
	C239.030655,444.592285 230.999054,464.178894 223.054428,483.800629 
	C213.949966,506.286957 205.033600,528.849854 195.858368,551.307068 
	C187.787216,571.062012 179.493210,590.726074 171.212280,610.394348 
	C170.696747,611.618835 169.437027,612.529968 168.523560,613.586914 
	C168.113617,613.320374 167.703674,613.053894 167.293732,612.787354 
	C167.293732,471.755981 167.293732,330.724609 167.293732,189.346527 
	C225.683716,189.346527 284.076233,189.346527 343.153412,189.346527 
	C340.317596,196.515671 337.597748,203.560486 334.752228,210.554138 
	C325.303406,233.777527 315.811737,256.983490 306.322144,280.190247 
	C306.016174,280.938507 305.554657,281.623138 304.681488,282.775909 
	C302.580963,285.009338 300.346375,286.540253 299.448730,288.642181 
	C293.675659,302.160706 288.063110,315.752838 282.736816,329.452545 
	C281.742279,332.010590 282.281067,335.164764 282.112274,338.043823 
z"/>
<path fill="#FA0F00" opacity="1.000000" stroke="none" 
	d="
M412.953491,548.110535 
	C410.714325,542.578552 408.020081,537.175903 406.397949,531.468567 
	C405.337646,527.738037 403.169373,527.987305 400.487976,527.989258 
	C376.170197,528.006897 351.852448,527.999084 327.534668,527.998718 
	C326.546509,527.998718 325.558380,527.998779 323.491730,527.998779 
	C324.705719,524.505005 325.586182,521.521667 326.761169,518.659119 
	C338.571106,489.888855 350.391785,461.122833 362.284851,432.386810 
	C373.681549,404.850067 385.166138,377.349701 396.619446,349.836395 
	C397.059113,348.780121 397.412415,347.628418 398.098572,346.749664 
	C398.910614,345.709778 400.050293,344.205597 401.030243,344.218781 
	C402.017029,344.232086 403.408447,345.678497 403.891235,346.809204 
	C409.328430,359.542694 414.665222,372.319580 419.949280,385.117706 
	C428.337738,405.434937 436.639313,425.788086 445.027405,446.105469 
	C452.235229,463.564056 459.539276,480.982941 466.752106,498.439484 
	C474.523956,517.249084 482.207611,536.095154 489.988220,554.901123 
	C497.458588,572.957214 505.015594,590.977539 512.485535,609.033813 
	C512.904236,610.045959 512.877380,611.242432 513.120117,612.735718 
	C511.374115,612.835571 509.937683,612.988281 508.501099,612.989258 
	C486.515167,613.004456 464.528473,612.911194 442.544006,613.089417 
	C438.979218,613.118225 437.407806,611.990234 436.190399,608.677673 
	C431.646667,596.314148 426.760132,584.076599 422.242462,571.241821 
	C422.852692,569.529602 423.803741,568.178528 423.497589,567.235840 
	C421.638031,561.510315 419.669006,555.801636 417.295380,550.276978 
	C416.807922,549.142395 414.449524,548.811707 412.953491,548.110535 
z"/>
<path fill="#FA0F00" opacity="1.000000" stroke="none" 
	d="
M282.424133,337.862610 
	C282.281067,335.164764 281.742279,332.010590 282.736816,329.452545 
	C288.063110,315.752838 293.675659,302.160706 299.448730,288.642181 
	C300.346375,286.540253 302.580963,285.009338 304.515259,283.107025 
	C301.434204,291.591797 298.087036,300.204895 294.622406,308.770508 
	C290.715393,318.429749 286.702698,328.046265 282.424133,337.862610 
z"/>
<path fill="#FA0F00" opacity="1.000000" stroke="none" 
	d="
M412.985718,548.479919 
	C414.449524,548.811707 416.807922,549.142395 417.295380,550.276978 
	C419.669006,555.801636 421.638031,561.510315 423.497589,567.235840 
	C423.803741,568.178528 422.852692,569.529602 422.182465,570.865662 
	C418.927490,563.642700 415.972717,556.246033 412.985718,548.479919 
z"/>
</svg>